<svg xmlns="http://www.w3.org/2000/svg" viewBox="0 0 19.13 16.61"><defs><style>.cls-1{fill:#086623;}</style></defs><g id="Layer_2" data-name="Layer 2"><g id="Layer_2-2" data-name="Layer 2"><path class="cls-1" d="M9.57,3.38h9.27c.29,0,.29,0,.29.28V16c0,.57-.06.63-.63.63H.46c-.35,0-.46-.1-.46-.46V3.62c0-.18.05-.25.24-.25Zm5.91,1.47H13.73c-.29,0-.35.06-.35.37V8.71c0,.27.08.35.35.35h3.49c.28,0,.36-.08.36-.35V5.2c0-.28-.07-.35-.36-.35Zm0,10.32h1.73c.29,0,.37-.08.37-.38V11.3c0-.27-.07-.34-.34-.34H13.73c-.29,0-.35.06-.35.36v3.49c0,.27.08.35.35.36ZM6.2,6.66H2.69A.27.27,0,0,0,2.44,7a.25.25,0,0,0,.22.25,1,1,0,0,0,.24,0H9.53a.51.51,0,0,0,.24,0,.27.27,0,0,0,0-.51H6.2Zm0,1.91H9.65a.27.27,0,1,0,0-.53H2.89a.87.87,0,0,0-.23,0,.25.25,0,0,0-.22.27.23.23,0,0,0,.23.24H6.18Zm0,4.77H9.68c.16,0,.24-.1.25-.26a.25.25,0,0,0-.26-.26h-7a.26.26,0,0,0-.21.27.23.23,0,0,0,.22.25H6.19Zm0,1.34H9.71a.23.23,0,0,0,.22-.24.24.24,0,0,0-.22-.28h-7a.27.27,0,0,0-.23.29.24.24,0,0,0,.26.23H6.17ZM4.91,11.43H2.72a.28.28,0,1,0,0,.55H7.06c.19,0,.3-.11.3-.27s-.11-.28-.31-.28H4.91Zm0-5.59H7.07a.28.28,0,0,0,.28-.17.26.26,0,0,0,0-.28A.32.32,0,0,0,7,5.28H2.82c-.22,0-.38.11-.38.28s.13.27.37.27Z"/><path class="cls-1" d="M9.57,2.82H.3c-.3,0-.3,0-.3-.3v-2C0,.1.11,0,.52,0H18.65c.37,0,.48.1.48.48V2.57c0,.24,0,.25-.25.25H9.57Zm4.32-1.69H10.62a.22.22,0,0,0-.24.25.24.24,0,0,0,.24.28h6.49c.15,0,.28,0,.31-.21s-.07-.32-.31-.32Zm-11.54,0H1.93c-.15,0-.22.11-.23.26s.07.26.23.26.55,0,.83,0S3,1.55,3,1.4a.24.24,0,0,0-.24-.27Zm2.09,0h0c-.15,0-.29,0-.44,0s-.21.13-.22.27A.22.22,0,0,0,4,1.65c.28,0,.56,0,.85,0s.21-.11.22-.26a.23.23,0,0,0-.23-.26Zm2.07,0h-.4a.24.24,0,0,0-.24.27.23.23,0,0,0,.23.25c.27,0,.55,0,.82,0a.24.24,0,0,0,.24-.27.25.25,0,0,0-.24-.25Z"/><path class="cls-1" d="M17,6.94c0,.46,0,.91,0,1.36,0,.15,0,.21-.2.21h-2.7c-.15,0-.2-.06-.2-.2V5.58c0-.14.05-.2.19-.2h2.72c.14,0,.19.06.19.2C17,6,17,6.49,17,6.94Zm-1.92.62.11,0c.4-.24.78-.49,1.16-.76a.19.19,0,0,0,0-.29.31.31,0,0,0-.48-.09l-.48.33c-.29.2-.29.2-.56,0l-.05,0a.26.26,0,0,0-.43.19C14.4,7,14.89,7.56,15.11,7.56Z"/><path class="cls-1" d="M17,13.05c0,.45,0,.91,0,1.36,0,.15-.05.21-.2.2h-2.7c-.15,0-.2,0-.2-.2V11.69c0-.14.05-.2.19-.2h2.72c.14,0,.19.06.19.2C17,12.14,17,12.59,17,13.05Zm-.71.59a.21.21,0,0,0-.09-.18,3.44,3.44,0,0,0-.27-.27c-.1-.09-.09-.16,0-.24a2.54,2.54,0,0,0,.28-.29.24.24,0,0,0,0-.37.23.23,0,0,0-.37,0l-.3.29c-.08.09-.14.08-.22,0a2.83,2.83,0,0,0-.3-.3.24.24,0,0,0-.37,0,.25.25,0,0,0,0,.37A3.83,3.83,0,0,0,15,13c.09.08.1.15,0,.24a1.72,1.72,0,0,0-.27.27.26.26,0,0,0,0,.39c.11.12.24.12.39,0l.2-.2c.19-.19.19-.19.37,0l.25.24a.24.24,0,0,0,.29,0A.27.27,0,0,0,16.32,13.64Z"/></g></g></svg>