<svg xmlns="http://www.w3.org/2000/svg" viewBox="0 0 16.19 19.4"><defs><style>.cls-1{fill:#086623;}</style></defs><g id="Layer_2" data-name="Layer 2"><g id="Layer_2-2" data-name="Layer 2"><path class="cls-1" d="M8,9.35A4.52,4.52,0,0,0,11.28,8a4.52,4.52,0,0,0,1.37-3.31,4.52,4.52,0,0,0-1.37-3.3A4.52,4.52,0,0,0,8,0a4.52,4.52,0,0,0-3.3,1.37A4.52,4.52,0,0,0,3.3,4.67,4.52,4.52,0,0,0,4.67,8,4.52,4.52,0,0,0,8,9.35Z"/><path class="cls-1" d="M16.15,14.92A12.24,12.24,0,0,0,16,13.69a10.54,10.54,0,0,0-.3-1.23,5.85,5.85,0,0,0-.51-1.15,4,4,0,0,0-.76-1,3.32,3.32,0,0,0-1.1-.69,3.71,3.71,0,0,0-1.4-.26,1.37,1.37,0,0,0-.76.33l-.79.51a4.74,4.74,0,0,1-1,.45,4,4,0,0,1-2.51,0,4.74,4.74,0,0,1-1-.45L5,9.7a1.37,1.37,0,0,0-.76-.33,3.71,3.71,0,0,0-1.4.26,3.32,3.32,0,0,0-1.1.69,4.29,4.29,0,0,0-.77,1,5.81,5.81,0,0,0-.5,1.15,8.85,8.85,0,0,0-.3,1.23A9.9,9.9,0,0,0,0,14.92c0,.37,0,.76,0,1.15A3.19,3.19,0,0,0,1,18.5a3.4,3.4,0,0,0,2.46.9h9.35a3.42,3.42,0,0,0,2.46-.9,3.19,3.19,0,0,0,1-2.43C16.19,15.68,16.18,15.29,16.15,14.92Z"/></g></g></svg>