<svg xmlns="http://www.w3.org/2000/svg" viewBox="0 0 47.91 47.88"><defs><style>.cls-1{fill:#086623;}</style></defs><g id="Layer_2" data-name="Layer 2"><g id="Layer_2-2" data-name="Layer 2"><path class="cls-1" d="M0,24.67v-1.5A5.52,5.52,0,0,1,1.47,21L21.21,1.31a5.29,5.29,0,0,1,2-1.31h1.5a5.39,5.39,0,0,1,2,1.34l5.76,5.74c.11.12.19.29.43.31,0-.21,0-.41,0-.61-.26-2.49,1.27-4.08,3.85-3.84a20.21,20.21,0,0,0,2.06,0,3,3,0,0,1,3.13,3.14q0,5,0,9.91a1.26,1.26,0,0,0,.41,1c1.45,1.43,2.89,2.88,4.32,4.33a4.81,4.81,0,0,1,.92,1.18,3,3,0,0,1-2.62,4.45H42.59c-.69,0-.69,0-.69.7q0,8.52,0,17.05a3,3,0,0,1-3.15,3.17c-2.72,0-5.45,0-8.17,0-.7,0-.71,0-.71-.72,0-4.67,0-9.34,0-14a3,3,0,0,0-3.19-3.2c-1.85,0-3.71,0-5.56,0a3,3,0,0,0-2.52,1.19A3.25,3.25,0,0,0,18,33.19V47.25c0,.62,0,.62-.63.62q-4.11,0-8.22,0a3,3,0,0,1-3.19-3.18c0-5.52,0-11,0-16.58,0-1.34.17-1.15-1.16-1.16H3.42C1.5,27,.73,26.43,0,24.67Z"/></g></g></svg>