<svg xmlns="http://www.w3.org/2000/svg" viewBox="0 0 21.75 15.24"><defs><style>.cls-1{fill:#086623;}</style></defs><g id="Layer_2" data-name="Layer 2"><g id="Layer_2-2" data-name="Layer 2"><path class="cls-1" d="M9,12.24c0,.66,0,1.32,0,2a1,1,0,0,1-1,1,1,1,0,0,1-1-1c-.06-.78-.05-1.57,0-2.36,0-.59-.21-.89-.83-.84H6c-3.63.15-3-.55-3.74-3-.26-.87-.5-1.75-.69-2.64s.18-1.25,1-1.28A2.43,2.43,0,0,1,5.1,5.93a17,17,0,0,1,.44,2.12c.09.5.25.85.88.9,2.65.2,2.65.21,2.65,2.91v.38Z"/><path class="cls-1" d="M12.74,12.16c0-.59,0-1.19,0-1.79,0-.9.42-1.29,1.27-1.41.67-.09,1.55.31,2-.27a5.54,5.54,0,0,0,.47-2c.4-1.76,1.27-2.59,2.64-2.56.89,0,1.29.45,1.07,1.33-.37,1.49-.81,3-1.22,4.45A1.43,1.43,0,0,1,17.57,11c-.19,0-.38,0-.57,0-2.24,0-2.24,0-2.24,2.32,0,.25,0,.5,0,.75,0,.65-.28,1.12-1,1.13s-1-.44-1-1.1,0-1.32,0-2Z"/><path class="cls-1" d="M11,7.85h-4c-.47,0-.9,0-.91-.66s.4-.71.88-.71c2.67,0,5.34,0,8,0,.47,0,.9.06.91.69s-.49.68-1,.68Z"/><path class="cls-1" d="M4.75,12.69C2.57,12.72,1.58,12,1,9.87.72,8.68.4,7.5.1,6.31c-.1-.39-.25-.87.29-1s.68.31.79.71c.34,1.21.65,2.43,1,3.64.42,1.53.9,1.89,2.47,1.9.34,0,.69,0,1,0s.66.13.7.51-.31.59-.68.62A7.35,7.35,0,0,1,4.75,12.69Z"/><path class="cls-1" d="M16.79,12.72c-.45-.11-1.36.26-1.35-.61s.9-.56,1.44-.57c1.91,0,2.27-.3,2.76-2.12.31-1.16.62-2.31.94-3.46.1-.36.23-.8.73-.69s.45.61.36,1c-.36,1.4-.71,2.8-1.12,4.18C20.06,12.06,18.93,12.72,16.79,12.72Z"/><path class="cls-1" d="M18.56.65a1.55,1.55,0,0,1,1.52,1.58,1.54,1.54,0,0,1-1.56,1.54A1.6,1.6,0,0,1,17,2.19,1.63,1.63,0,0,1,18.56.65Z"/><path class="cls-1" d="M4.74,2.25A1.49,1.49,0,0,1,3.16,3.74,1.56,1.56,0,0,1,1.65,2.15,1.66,1.66,0,0,1,3.26.63,1.56,1.56,0,0,1,4.74,2.25Z"/><path class="cls-1" d="M12.38,1.44a1.5,1.5,0,0,1-1.46,1.42A1.43,1.43,0,0,1,9.53,1.4,1.35,1.35,0,0,1,11,0,1.42,1.42,0,0,1,12.38,1.44Z"/><path class="cls-1" d="M12.8,3.57H8.87A1.49,1.49,0,0,0,7.38,5.06v1h1v-1h.27v1H13.1v-1h.27v1h.92v-1A1.49,1.49,0,0,0,12.8,3.57Z"/></g></g></svg>