<svg xmlns="http://www.w3.org/2000/svg" viewBox="0 0 23.24 26.53"><defs><style>.cls-1{fill:#086623;}</style></defs><g id="Layer_2" data-name="Layer 2"><g id="Layer_2-2" data-name="Layer 2"><path class="cls-1" d="M0,13.9a15.45,15.45,0,0,1,.38-2,11.57,11.57,0,0,1,5.42-7c.5-.29.84-.09.84.49,0,.75,0,1.49,0,2.23a1.47,1.47,0,0,1-.49,1.17,9.89,9.89,0,0,0-1.39,1.57A8.24,8.24,0,1,0,19.7,16.44a8,8,0,0,0-2.48-7.5,4.91,4.91,0,0,1-.43-.48,1.18,1.18,0,0,1-.24-.72V5.33c0-.55.34-.75.82-.48a11.54,11.54,0,0,1,4.95,5.6,10.78,10.78,0,0,1,.87,5.28,11.45,11.45,0,0,1-7.16,10,10.25,10.25,0,0,1-3.32.82l-.13,0h-2l-.12,0a10.69,10.69,0,0,1-3.29-.83A11.52,11.52,0,0,1,.38,18,15.76,15.76,0,0,1,0,16Z"/><path class="cls-1" d="M13.27,5.81c0,1.39,0,2.78,0,4.17a1.68,1.68,0,0,1-3.31.36,2.46,2.46,0,0,1,0-.54V1.68a1.68,1.68,0,1,1,3.35,0C13.28,3.05,13.27,4.43,13.27,5.81Z"/></g></g></svg>