<svg xmlns="http://www.w3.org/2000/svg" viewBox="0 0 310.81 90.1"><defs><style>.cls-1{fill:#086623;}.cls-2{fill:#09447d;}.cls-3{font-size:49.73px;fill:#58595b;font-family:Poppins-SemiBold, Poppins;font-weight:600;}</style></defs><g id="Layer_2" data-name="Layer 2"><g id="Layer_2-2" data-name="Layer 2"><path class="cls-1" d="M72.94,63.42a36.34,36.34,0,0,0,3.89-7.63,36.77,36.77,0,0,0,1.9-8.35,1.17,1.17,0,0,1,1.35-.88,1.19,1.19,0,0,1,1.21,1.14,39.23,39.23,0,0,1-2.05,9,38.53,38.53,0,0,1-4.17,8.19,1.32,1.32,0,0,1-2.13-1.43Z"/><path class="cls-1" d="M74.26,65.46a1.66,1.66,0,0,1-1-.33,1.37,1.37,0,0,1-.53-1.83,34.94,34.94,0,0,0,5.75-15.88,1.38,1.38,0,0,1,1.58-1.07,1.64,1.64,0,0,1,1.11.52,1.19,1.19,0,0,1,.29.85,39.26,39.26,0,0,1-2.06,9A38.55,38.55,0,0,1,75.25,65a1.16,1.16,0,0,1-.76.47ZM80,46.77c-.54,0-1,.3-1,.69a35.09,35.09,0,0,1-5.83,16.08h0a1,1,0,0,0,.43,1.25,1.23,1.23,0,0,0,.87.23.77.77,0,0,0,.48-.29,37.16,37.16,0,0,0,6.17-17.05.7.7,0,0,0-.19-.53,1.19,1.19,0,0,0-.81-.37Z"/><path class="cls-1" d="M32.79,83.38a41.09,41.09,0,0,0,49.8-25.93,1.25,1.25,0,0,1,1.59-.69A1.22,1.22,0,0,1,85,58.3,43.69,43.69,0,0,1,48.37,87.24,44.42,44.42,0,0,1,32.1,85.86a1.22,1.22,0,0,1-.79-1.56A1.26,1.26,0,0,1,32.79,83.38Z"/><path class="cls-1" d="M43.86,87.68A43.66,43.66,0,0,1,32,86.06a1.35,1.35,0,0,1-.83-.67,1.53,1.53,0,0,1,1.63-2.21h0a42,42,0,0,0,15.24,1.29,40.47,40.47,0,0,0,14.63-4.4A41,41,0,0,0,82.39,57.38a1.45,1.45,0,0,1,1.85-.82,1.48,1.48,0,0,1,.9.74,1.42,1.42,0,0,1,.08,1.07A44,44,0,0,1,64.1,82.72a43.42,43.42,0,0,1-15.71,4.73C46.88,87.6,45.36,87.68,43.86,87.68ZM32.51,83.56a1.11,1.11,0,0,0-1,.8,1.08,1.08,0,0,0,.07.83,1,1,0,0,0,.57.46A43.47,43.47,0,0,0,84.81,58.23a.93.93,0,0,0-.06-.73,1,1,0,0,0-.64-.54,1,1,0,0,0-1.32.56A41.39,41.39,0,0,1,62.91,80.45a40.9,40.9,0,0,1-14.78,4.44,42.16,42.16,0,0,1-15.4-1.3h0Z"/><path class="cls-1" d="M45.18,78.87a34.65,34.65,0,0,0,14-3.51,35.58,35.58,0,0,0,11.43-8.92,1.19,1.19,0,0,1,1.62,0,1.15,1.15,0,0,1,.34,1.61,38,38,0,0,1-12.26,9.57,37.34,37.34,0,0,1-15.07,3.77,1.17,1.17,0,0,1-1.07-1.26C44.21,79.47,44.64,78.88,45.18,78.87Z"/><path class="cls-1" d="M45.26,81.65a1.16,1.16,0,0,1-.81-.34A1.59,1.59,0,0,1,44,80.18a1.4,1.4,0,0,1,1.17-1.52,34.66,34.66,0,0,0,13.95-3.49A35.17,35.17,0,0,0,70.48,66.3a1.4,1.4,0,0,1,1.92,0A1.61,1.61,0,0,1,73,67.43a1,1,0,0,1-.26.81,38.25,38.25,0,0,1-12.33,9.62,37.45,37.45,0,0,1-15.16,3.79Zm26.1-15.29a.71.71,0,0,0-.55.22,35.62,35.62,0,0,1-11.5,9,35,35,0,0,1-14.12,3.53h0c-.41,0-.76.52-.75,1.1a1.17,1.17,0,0,0,.32.83.75.75,0,0,0,.52.21,37.3,37.3,0,0,0,15-3.74A38.05,38.05,0,0,0,72.45,68a.65.65,0,0,0,.15-.5,1.23,1.23,0,0,0-.46-.81A1.33,1.33,0,0,0,71.36,66.36Z"/><path class="cls-1" d="M24.16,72.86a36.54,36.54,0,0,0,7.61,3.92,37.16,37.16,0,0,0,8.34,1.93,1.32,1.32,0,0,1-.27,2.55A37.16,37.16,0,0,1,22.71,75a1.16,1.16,0,0,1-.1-1.64A1.18,1.18,0,0,1,24.16,72.86Z"/><path class="cls-1" d="M39.92,81.48h-.1a38.47,38.47,0,0,1-9-2.08,39.24,39.24,0,0,1-8.23-4.23,1.15,1.15,0,0,1-.46-.77,1.62,1.62,0,0,1,.31-1.18,1.39,1.39,0,0,1,1.84-.53,36.58,36.58,0,0,0,7.57,3.9,36.09,36.09,0,0,0,8.28,1.91,1.39,1.39,0,0,1,1.07,1.59,1.61,1.61,0,0,1-.55,1.12A1.13,1.13,0,0,1,39.92,81.48ZM23.69,72.93a1.21,1.21,0,0,0-.9.53,1.19,1.19,0,0,0-.24.87.73.73,0,0,0,.29.48A38.93,38.93,0,0,0,31,79a39.41,39.41,0,0,0,8.9,2.06.72.72,0,0,0,.52-.17,1.21,1.21,0,0,0,.39-.83c0-.58-.26-1.09-.68-1.13A36.93,36.93,0,0,1,31.7,77,36.94,36.94,0,0,1,24,73h0A.55.55,0,0,0,23.69,72.93Z"/><path class="cls-1" d="M4.78,31.17A41.12,41.12,0,0,0,22.23,78.75a1.25,1.25,0,0,1,.33,1.69,1.22,1.22,0,0,1-1.69.49,43.84,43.84,0,0,1-18-22.07,44,44,0,0,1-.53-28.48,1.22,1.22,0,0,1,1.6-.71A1.24,1.24,0,0,1,4.78,31.17Z"/><path class="cls-1" d="M21.46,81.32a1.23,1.23,0,0,1-.7-.21A43.82,43.82,0,0,1,2.13,30.32a1.35,1.35,0,0,1,.72-.8A1.46,1.46,0,0,1,4,29.46a1.47,1.47,0,0,1,1,1.78A41,41,0,0,0,5.48,57.9,41,41,0,0,0,22.34,78.57a1.47,1.47,0,0,1,.41,2,1.58,1.58,0,0,1-1,.73A1.87,1.87,0,0,1,21.46,81.32ZM3.48,29.8a1,1,0,0,0-.45.1,1,1,0,0,0-.49.55A43.44,43.44,0,0,0,21,80.75a.87.87,0,0,0,.69.11,1.14,1.14,0,0,0,.7-.52,1,1,0,0,0-.27-1.41A41.24,41.24,0,0,1,4.58,31.11h0a1,1,0,0,0-.72-1.24A1,1,0,0,0,3.48,29.8Z"/><path class="cls-1" d="M17.11,12.69A41.21,41.21,0,0,0,7.18,25.36a1.1,1.1,0,0,1-.71.55,1.35,1.35,0,0,1-1-.08,1.31,1.31,0,0,1-.67-.7,1.09,1.09,0,0,1,0-.93A43.83,43.83,0,0,1,15.43,10.74a1.14,1.14,0,0,1,.89-.27,1.29,1.29,0,0,1,.85.49,1.38,1.38,0,0,1,.31.91A1.11,1.11,0,0,1,17.11,12.69Z"/><path class="cls-1" d="M6.1,26.18A1.64,1.64,0,0,1,5.42,26a1.52,1.52,0,0,1-.78-.82A1.34,1.34,0,0,1,4.7,24.1,44.31,44.31,0,0,1,15.29,10.58a1.35,1.35,0,0,1,1.06-.32,1.56,1.56,0,0,1,1,.56,1.6,1.6,0,0,1,.35,1.06,1.32,1.32,0,0,1-.44,1h0A41.32,41.32,0,0,0,7.37,25.46a1.35,1.35,0,0,1-.84.66A1.54,1.54,0,0,1,6.1,26.18Zm10.08-15.5a.94.94,0,0,0-.61.22A43.94,43.94,0,0,0,5.08,24.3a.9.9,0,0,0,0,.75,1.08,1.08,0,0,0,.56.59,1.15,1.15,0,0,0,.81.07A.93.93,0,0,0,7,25.26,41.58,41.58,0,0,1,17,12.53a.89.89,0,0,0,.29-.67,1.11,1.11,0,0,0-.26-.77,1.08,1.08,0,0,0-.71-.41Z"/><path class="cls-1" d="M8.78,44.06A35.06,35.06,0,0,0,20.41,69.92a1.32,1.32,0,0,1-1.72,1.91A37.69,37.69,0,0,1,9.52,59.26a37.22,37.22,0,0,1-3.3-15.18,1.16,1.16,0,0,1,1.3-1A1.18,1.18,0,0,1,8.78,44.06Z"/><path class="cls-1" d="M19.3,72.26a1.15,1.15,0,0,1-.75-.27A37.81,37.81,0,0,1,6,44.08a1.14,1.14,0,0,1,.34-.8,1.63,1.63,0,0,1,1.18-.44A1.4,1.4,0,0,1,9,44.06H9a34.85,34.85,0,0,0,3.05,14.06,35.22,35.22,0,0,0,8.5,11.64,1.39,1.39,0,0,1-.07,1.91,1.6,1.6,0,0,1-1.08.58Zm-11.82-29a1.24,1.24,0,0,0-.84.31.7.7,0,0,0-.21.49,37.4,37.4,0,0,0,12.4,27.6.73.73,0,0,0,.53.16,1.18,1.18,0,0,0,.79-.44,1,1,0,0,0,.12-1.31,35.18,35.18,0,0,1-11.7-26c0-.43-.47-.78-1.06-.79Z"/><path class="cls-1" d="M15.47,23.25A34.91,34.91,0,0,0,9.12,39a1.19,1.19,0,0,1-1.4.83,1.16,1.16,0,0,1-1.15-1.18,37.47,37.47,0,0,1,6.82-16.91A1.15,1.15,0,0,1,15,21.68,1.2,1.2,0,0,1,15.47,23.25Z"/><path class="cls-1" d="M7.89,40.06,7.7,40a1.59,1.59,0,0,1-1.09-.56,1.12,1.12,0,0,1-.25-.85,37.54,37.54,0,0,1,6.86-17,1,1,0,0,1,.72-.44,1.66,1.66,0,0,1,1.23.35,1.39,1.39,0,0,1,.47,1.85h0a34.2,34.2,0,0,0-4.12,7.45A33.6,33.6,0,0,0,9.33,39,1.36,1.36,0,0,1,7.89,40.06Zm6.27-18.48H14a.65.65,0,0,0-.44.27A37,37,0,0,0,6.79,38.68a.66.66,0,0,0,.16.53,1.13,1.13,0,0,0,.79.41c.58.06,1.12-.23,1.17-.64a35.06,35.06,0,0,1,6.38-15.85,1,1,0,0,0-.39-1.28A1.25,1.25,0,0,0,14.16,21.58Z"/><path class="cls-1" d="M35.73,9.73a33.81,33.81,0,0,0-8,3,34.78,34.78,0,0,0-7.07,4.85,1.21,1.21,0,0,1-1.6-.29,1.15,1.15,0,0,1-.1-1.64,36.74,36.74,0,0,1,7.59-5.2,36.21,36.21,0,0,1,8.6-3.2,1.14,1.14,0,0,1,1.28,1A1.2,1.2,0,0,1,35.73,9.73Z"/><path class="cls-1" d="M20.06,18a1.65,1.65,0,0,1-1.17-.55,1.57,1.57,0,0,1-.46-1.18,1.07,1.07,0,0,1,.37-.77,37.68,37.68,0,0,1,7.63-5.23A36.24,36.24,0,0,1,35.09,7a1.13,1.13,0,0,1,.87.16,1.61,1.61,0,0,1,.66,1,1.39,1.39,0,0,1-.85,1.72,35,35,0,0,0-15,7.79A1.11,1.11,0,0,1,20.06,18ZM35.33,7.42a.39.39,0,0,0-.15,0,35.76,35.76,0,0,0-8.55,3.18,36.6,36.6,0,0,0-7.55,5.17.64.64,0,0,0-.22.48,1.2,1.2,0,0,0,.34.86,1,1,0,0,0,1.31.26,34.67,34.67,0,0,1,7.1-4.87,33.78,33.78,0,0,1,8.07-3h0c.4-.09.64-.66.52-1.23a1.16,1.16,0,0,0-.47-.75A.77.77,0,0,0,35.33,7.42Z"/><path class="cls-1" d="M75,17.06A41,41,0,0,0,25.27,7.22a1.26,1.26,0,0,1-1.63-.61,1.21,1.21,0,0,1,.46-1.68A43.61,43.61,0,0,1,76.9,15.38a1.2,1.2,0,0,1-.21,1.74A1.26,1.26,0,0,1,75,17.06Z"/><path class="cls-1" d="M75.82,17.64a1.35,1.35,0,0,1-1-.44h0A40.83,40.83,0,0,0,25.37,7.41a1.48,1.48,0,0,1-1.92-.69,1.53,1.53,0,0,1-.13-1.16A1.34,1.34,0,0,1,24,4.74a43.8,43.8,0,0,1,53.06,10.5,1.34,1.34,0,0,1,.32,1,1.55,1.55,0,0,1-.56,1.05A1.67,1.67,0,0,1,75.82,17.64Zm-.7-.72a1.06,1.06,0,0,0,1.44,0,1.13,1.13,0,0,0,.41-.74.91.91,0,0,0-.23-.69A43.4,43.4,0,0,0,24.2,5.12a1,1,0,0,0-.47.57,1,1,0,0,0,.1.82A1,1,0,0,0,25.17,7a41.25,41.25,0,0,1,50,9.89Z"/><path class="cls-1" d="M66.61,17.18a34.75,34.75,0,0,0-12.7-6.94A35.29,35.29,0,0,0,39.45,9.06c-.53.06-1.05-.45-1.16-1.15a1.14,1.14,0,0,1,.85-1.4,37.92,37.92,0,0,1,15.5,1.27,37.14,37.14,0,0,1,13.64,7.45,1.14,1.14,0,0,1-.07,1.63A1.19,1.19,0,0,1,66.61,17.18Z"/><path class="cls-1" d="M67.16,17.58a1,1,0,0,1-.69-.24,34.49,34.49,0,0,0-12.62-6.89A35.32,35.32,0,0,0,39.48,9.27a1.43,1.43,0,0,1-1.4-1.33,1.57,1.57,0,0,1,.27-1.19,1.12,1.12,0,0,1,.76-.46A38.46,38.46,0,0,1,54.7,7.58a37.52,37.52,0,0,1,13.72,7.49,1.07,1.07,0,0,1,.38.8A1.55,1.55,0,0,1,68.37,17,1.7,1.7,0,0,1,67.16,17.58Zm-23.33-9A35.05,35.05,0,0,1,66.75,17h0a1,1,0,0,0,1.3-.3,1.15,1.15,0,0,0,.33-.83.7.7,0,0,0-.24-.5A37.1,37.1,0,0,0,54.58,8,37.8,37.8,0,0,0,39.16,6.72a.67.67,0,0,0-.47.29,1.14,1.14,0,0,0-.19.86c.1.58.52,1,.93,1A36,36,0,0,1,43.83,8.57Z"/><path class="cls-1" d="M78,35.85a34.61,34.61,0,0,0-1.22-4.11A35.07,35.07,0,0,0,75,27.82a36.17,36.17,0,0,0-2.19-3.69c-.43-.58-.81-1.18-1.27-1.73l-.66-.85-.71-.81a1.21,1.21,0,0,1,.29-1.6,1.16,1.16,0,0,1,1.65-.1l.75.87.71.91c.5.59.91,1.25,1.37,1.86a38.6,38.6,0,0,1,2.34,4,35.89,35.89,0,0,1,1.86,4.21,37.8,37.8,0,0,1,1.31,4.41,1.14,1.14,0,0,1-1,1.27A1.2,1.2,0,0,1,78,35.85Z"/><path class="cls-1" d="M79.14,36.79a1.32,1.32,0,0,1-1.36-.89h0a37.19,37.19,0,0,0-1.21-4.08,36.5,36.5,0,0,0-1.72-3.89,36,36,0,0,0-2.18-3.67l-.45-.64c-.25-.36-.52-.74-.8-1.08l-.67-.85-.7-.8a1.43,1.43,0,0,1,.31-1.9,1.58,1.58,0,0,1,1.17-.45,1,1,0,0,1,.78.38l.75.86.72.92c.32.38.61.8.89,1.2.16.22.31.45.48.67a36.92,36.92,0,0,1,2.36,4,37.36,37.36,0,0,1,1.87,4.23,36.64,36.64,0,0,1,1.32,4.44,1.1,1.1,0,0,1-.17.87,1.59,1.59,0,0,1-1,.66A2.46,2.46,0,0,1,79.14,36.79Zm-.94-1c.09.4.65.64,1.22.53a1.13,1.13,0,0,0,.75-.47.68.68,0,0,0,.11-.55A38,38,0,0,0,79,30.93a37.29,37.29,0,0,0-1.85-4.18A38.6,38.6,0,0,0,74.8,22.8c-.16-.21-.32-.44-.48-.67-.28-.39-.56-.8-.87-1.17l-.72-.91L72,19.18A.68.68,0,0,0,71.5,19a1.19,1.19,0,0,0-.85.34,1,1,0,0,0-.27,1.31l.7.81.67.85c.29.35.56.74.82,1.1L73,24a36.4,36.4,0,0,1,2.21,3.73A34.9,34.9,0,0,1,77,31.66,38.28,38.28,0,0,1,78.2,35.8Z"/><path class="cls-1" d="M85,42.5c0-.84-.1-1.68-.15-2.52s-.2-1.67-.31-2.5a41.08,41.08,0,0,0-1.08-4.92A43.93,43.93,0,0,0,81.8,27.8a45.2,45.2,0,0,0-2.26-4.51,1.27,1.27,0,0,1,.51-1.66,1.21,1.21,0,0,1,1.71.38,43.71,43.71,0,0,1,2.4,4.79,45.8,45.8,0,0,1,1.77,5.05,44.77,44.77,0,0,1,1.15,5.23c.12.89.25,1.77.33,2.66s.16,1.79.16,2.68a1.22,1.22,0,0,1-1.26,1.22A1.25,1.25,0,0,1,85,42.5Z"/><path class="cls-1" d="M86.31,43.86h0a1.47,1.47,0,0,1-1.52-1.35h0c0-.58-.05-1.17-.1-1.74L84.63,40c0-.58-.12-1.18-.2-1.75,0-.25-.07-.5-.1-.75a40.85,40.85,0,0,0-1.08-4.88,42.22,42.22,0,0,0-1.65-4.74,43.64,43.64,0,0,0-2.25-4.48,1.54,1.54,0,0,1,1.75-2.14,1.32,1.32,0,0,1,.85.64,47,47,0,0,1,2.41,4.81,44.76,44.76,0,0,1,1.77,5.09,42.91,42.91,0,0,1,1.16,5.25c0,.25.07.5.1.74.09.64.17,1.29.23,1.94l.06.78c0,.62.1,1.27.1,1.91a1.36,1.36,0,0,1-.39,1A1.48,1.48,0,0,1,86.31,43.86Zm-1.1-1.36a1.05,1.05,0,0,0,1.1.93h0a1,1,0,0,0,.77-.32.92.92,0,0,0,.27-.68c0-.63,0-1.27-.1-1.89l-.06-.78c0-.63-.14-1.28-.22-1.91,0-.25-.07-.49-.1-.74a42.37,42.37,0,0,0-1.15-5.19,43.24,43.24,0,0,0-1.76-5,44,44,0,0,0-2.38-4.76.92.92,0,0,0-.58-.44,1.07,1.07,0,0,0-.83.14,1.06,1.06,0,0,0-.45,1.37A41.53,41.53,0,0,1,82,27.71a40,40,0,0,1,1.67,4.79,41.91,41.91,0,0,1,1.1,4.94l.09.75c.08.58.16,1.18.21,1.77l.06.77C85.17,41.3,85.21,41.9,85.21,42.5Z"/><polygon class="cls-1" points="68.28 25.95 26.47 41.73 42.82 70.04 54.35 50.18 44.38 55.09 38.24 44.2 63.09 34.93 68.28 25.95"/><polygon class="cls-2" points="18.84 28.04 24.57 37.98 56.41 28.04 18.84 28.04"/><text class="cls-3" transform="translate(101.48 60.61)">e Voting</text></g></g></svg>