<svg xmlns="http://www.w3.org/2000/svg" viewBox="0 0 14.51 18.39"><defs><style>.cls-1{fill:#086623;}</style></defs><g id="Layer_2" data-name="Layer 2"><g id="Layer_2-2" data-name="Layer 2"><path class="cls-1" d="M13.42,18.39H1.08A1.44,1.44,0,0,1,0,16.77V1.62A1.44,1.44,0,0,1,1.08,0H9.91c1.4,1.41,2.8,2.82,4.21,4.21a1.17,1.17,0,0,1,.39.93c0,3.88,0,7.75,0,11.63A1.44,1.44,0,0,1,13.42,18.39Zm-12-9.21c0,2.12,0,4.24,0,6.37A1.25,1.25,0,0,0,2.85,17h8.81a1.24,1.24,0,0,0,1.42-1.39c0-3,0-6.08,0-9.11,0-.36-.12-.52-.49-.51-.85,0-1.69,0-2.53,0A1.42,1.42,0,0,1,8.5,4.4V2c0-.52,0-.54-.56-.55H3c-1.11,0-1.54.43-1.54,1.53Z"/><path class="cls-1" d="M7.21,15.79H3.62a1.57,1.57,0,0,1-.53-.06.68.68,0,0,1,0-1.29,1.35,1.35,0,0,1,.6-.08h7.15c.68,0,1,.25,1.05.71s-.35.72-1,.72Z"/><path class="cls-1" d="M7.23,10.56H3.64a1.38,1.38,0,0,1-.53-.06.66.66,0,0,1-.47-.68.63.63,0,0,1,.49-.63,2.32,2.32,0,0,1,.53,0h7.19c.68,0,1,.25,1,.72s-.36.7-1.05.7Z"/><path class="cls-1" d="M7.25,13.18H3.7a2,2,0,0,1-.49,0,.69.69,0,0,1,0-1.36,2.27,2.27,0,0,1,.45,0h7.15c.68,0,1,.24,1.05.7s-.36.73-1.07.73Z"/><path class="cls-1" d="M5,7.94H3.45a.74.74,0,0,1-.82-.72.72.72,0,0,1,.8-.69q1.53,0,3.06,0a.71.71,0,0,1,.8.69.73.73,0,0,1-.78.72Z"/></g></g></svg>