<svg xmlns="http://www.w3.org/2000/svg" viewBox="0 0 22.95 26.53"><defs><style>.cls-1{fill:#086623;}.cls-2{font-size:7.82px;fill:#fff;font-family:Poppins-Medium, Poppins;font-weight:500;}</style></defs><g id="Layer_2" data-name="Layer 2"><g id="Layer_2-2" data-name="Layer 2"><path class="cls-1" d="M18.79,16.82a4.34,4.34,0,0,1-2-2,.93.93,0,0,0-1-.6c-1.62,0-3.24,0-4.86,0a2.38,2.38,0,0,1-2.42-2.46V9.27h0V6.64c0-.72,0-.77-.78-.77a.72.72,0,0,0-.21,0c-.29.08-.44,0-.58-.29A2.13,2.13,0,0,0,4.8,4.53,2.18,2.18,0,0,0,3,7.19a.47.47,0,0,1-.14.49,7.79,7.79,0,0,0-2.21,9.2c.36.92.72,1.85,1.06,2.78a5.24,5.24,0,0,1,0,3.78A1.53,1.53,0,0,0,2.9,25.67a2.13,2.13,0,0,0,1-.21l8.88-3.38c2-.78,4.08-1.55,6.12-2.34a1.44,1.44,0,0,0,.63-2.35A2.15,2.15,0,0,0,18.79,16.82ZM2.63,15.5c-.18,0-.25-.1-.3-.25a3.15,3.15,0,0,1-.08-.71c0-.19-.12-.54.22-.58s.26.33.31.54.06.43.08.64S2.83,15.47,2.63,15.5ZM5.1,9.38a6,6,0,0,0-2,2.92L3,12.54a.28.28,0,0,1-.34.21c-.17,0-.21-.18-.19-.37s0-.16.07-.25A6.53,6.53,0,0,1,4.74,9c.17-.13.38-.35.59-.09S5.26,9.25,5.1,9.38Z"/><path class="cls-1" d="M22.94,2.53A2.38,2.38,0,0,0,20.54,0c-2.92,0-5.83,0-8.75,0A2.36,2.36,0,0,0,9.37,2.55V11.2a2.15,2.15,0,0,0,2.34,2.42c2.92,0,5.83,0,8.75,0a2.4,2.4,0,0,0,2.48-2.57C23,8.22,23,5.37,22.94,2.53Z"/><path class="cls-1" d="M11,23.37,6.7,25c-.34.13-.32.28-.12.53a2.58,2.58,0,0,0,2.88.87,2.67,2.67,0,0,0,2-2.46C11.49,23.37,11.36,23.22,11,23.37Z"/><text class="cls-2" transform="translate(13.92 9.36)">2</text></g></g></svg>