<svg xmlns="http://www.w3.org/2000/svg" viewBox="0 0 228.63 214.15"><defs><style>.cls-1{fill:#09447d;}.cls-2,.cls-3{fill:#086623;}.cls-3{font-size:15.78px;font-family:Poppins-Bold, Poppins;font-weight:700;}</style></defs><g id="Layer_2" data-name="Layer 2"><g id="Layer_2-2" data-name="Layer 2"><path class="cls-1" d="M113,214.06q-51.63,0-103.27,0c-.72,0-1.84.42-2.08-.41s.9-1.12,1.49-1.58q38.22-30.13,76.42-60.29c1.46-1.16,2.41-1.19,3.83,0A92.18,92.18,0,0,0,100.06,159c8.89,5.39,17.74,5.22,26.54-.27,3.7-2.32,7.32-4.74,10.78-7.41a1.8,1.8,0,0,1,2.64,0q38.63,30.49,77.3,60.92a9.32,9.32,0,0,1,1,.82c.53.54.28.86-.36.92s-1.32,0-2,0Z"/><path class="cls-1" d="M228.6,146.47V206.9c0,.41,0,.84,0,1.25s.24,1.21-.35,1.46-1.05-.41-1.5-.76L201.68,189.1l-53.79-42.39c-1.86-1.47-1.86-1.47.07-2.84,17.63-12.53,35.39-24.89,52.6-38,7.65-5.83,15.26-11.72,22.06-18.57,1.35-1.35,2.58-2.82,3.87-4.23.31-.34.62-.8,1.19-.58a1.33,1.33,0,0,1,.88,1.24c0,.66,0,1.32,0,2Z"/><path class="cls-1" d="M.05,146V86.8c0-.12,0-.24,0-.36.1-.67-.32-1.65.46-1.93s1,.7,1.44,1.16a161.91,161.91,0,0,0,17.9,15.71c17.35,13.61,35.45,26.21,53.43,39,1.8,1.28,3.56,2.61,5.42,3.81,1.24.79,1.2,1.31.07,2.19q-11.52,9-23,18.07Q29,185.57,2.16,206.69c-.5.4-1,1.17-1.64.91-.78-.32-.45-1.26-.45-1.94Q0,175.81.05,146Z"/><path class="cls-1" d="M33.11,100.84c-2.45-1.89-5-3.77-7.43-5.72C19.55,90.25,13.41,85.4,8,79.68c-1.18-1.24-1.23-1.94.24-3,5.21-3.9,10.29-8,15.48-11.92a3.88,3.88,0,0,0,1.71-3.46c-.05-11.3,0-22.59,0-33.89,0-2.81,0-2.81,2.74-2.81,15,0,30,0,45,0a5.87,5.87,0,0,0,3.92-1.35C84.88,17.1,92.74,11.05,100.56,5c8.36-6.52,19-6.62,27.36-.16q11.79,9.07,23.49,18.28a6.65,6.65,0,0,0,4.41,1.52c14.94-.05,29.89,0,44.83,0,2.67,0,2.72,0,2.72,2.69,0,10.76.15,21.52-.09,32.27-.06,2.86.66,4.59,3,6.21,4.2,3,8.15,6.26,12.21,9.41,2.18,1.69,2.22,1.72.35,3.81A110.41,110.41,0,0,1,206,90.7c-2.91,2.38-5.89,4.69-8.86,7-.41.31-.82.93-1.35.72-.69-.27-.38-1-.38-1.59q0-22.86,0-45.73c0-5.31-.07-10.64,0-16,0-1.88-.62-2.31-2.38-2.3q-29.85.07-59.71,0h-97c-2.92,0-2.92,0-2.92,3q0,32,0,64A1,1,0,0,1,33.11,100.84Z"/><path class="cls-2" d="M113.62,104.45H97.19a4.91,4.91,0,0,1-5.07-5.07V70.12c0-1.14.49-1.63,1.63-1.63.88,0,1.76,0,2.63,0,.4,0,.5-.13.49-.51,0-1.4,0-2.8,0-4.2A16.79,16.79,0,0,1,111,47.32a16.82,16.82,0,0,1,19.35,14.92c.2,1.88.06,3.77.09,5.65,0,.6,0,.6.61.6h2.68A1.34,1.34,0,0,1,135.18,70q0,14.82,0,29.65a4.89,4.89,0,0,1-4.9,4.84Zm0-36h8.93c.34,0,.45-.1.44-.43,0-.74,0-1.48,0-2.22a23.29,23.29,0,0,0-.14-3.54A9.34,9.34,0,0,0,104.31,64v3.86c0,.73-.06.67.65.67Zm0,26.14h2.14c1,0,1.38-.46,1.27-1.42-.23-2.06-.45-4.12-.69-6.18a.61.61,0,0,1,.25-.61,4.33,4.33,0,0,0,1.65-3.69,4.56,4.56,0,0,0-5.44-4.34,4.57,4.57,0,0,0-2,8.08.48.48,0,0,1,.19.46c-.11.87-.19,1.74-.29,2.61-.14,1.27-.3,2.53-.41,3.8-.08.86.33,1.28,1.2,1.28Z"/><text class="cls-3" transform="translate(90.45 123.54)">RESET</text></g></g></svg>