<svg xmlns="http://www.w3.org/2000/svg" viewBox="0 0 17.27 19.4"><defs><style>.cls-1{fill:#086623;}</style></defs><g id="Layer_2" data-name="Layer 2"><g id="Layer_2-2" data-name="Layer 2"><path class="cls-1" d="M14.11,12.54a4.23,4.23,0,0,1-3.41,1.74h-2a1.58,1.58,0,0,1-1.48-1,4.51,4.51,0,0,1-.79-.32A5.28,5.28,0,0,1,5,11.83,6.35,6.35,0,0,0,0,18v.4a1,1,0,0,0,1,1H16.28a1,1,0,0,0,1-1V18A6.33,6.33,0,0,0,14.11,12.54Z"/><path class="cls-1" d="M3.92,9.8a1.12,1.12,0,0,0,1-.58v0h0a4.35,4.35,0,0,0,2.47,2.6,1.57,1.57,0,0,1,1.33-.73h2a1.12,1.12,0,0,0,.54-.15,2.26,2.26,0,0,0,.63-.73,5.22,5.22,0,0,0,.49-1,1.34,1.34,0,0,0,.31.36v.48a2,2,0,0,1-2,2h-2a.67.67,0,1,0,0,1.34h2A3.32,3.32,0,0,0,14,10.06V9.58a1.14,1.14,0,0,0,.45-.9V5.87A1.09,1.09,0,0,0,14,5,5.38,5.38,0,0,0,3.27,5a1.09,1.09,0,0,0-.47.91V8.68A1.12,1.12,0,0,0,3.92,9.8ZM8.64,1.35a4,4,0,0,1,4,3.64,1,1,0,0,0-.31.39,4.1,4.1,0,0,0-3.7-2.82A4.1,4.1,0,0,0,4.93,5.37h0A1,1,0,0,0,4.62,5,4,4,0,0,1,8.64,1.35Z"/></g></g></svg>