<svg xmlns="http://www.w3.org/2000/svg" viewBox="0 0 8.35 19.4"><defs><style>.cls-1{fill:#086623;}</style></defs><g id="Layer_2" data-name="Layer 2"><g id="Layer_2-2" data-name="Layer 2"><path class="cls-1" d="M4.51,0A2,2,0,0,1,5.57.68,1.75,1.75,0,1,1,3.67.06L3.83,0Z"/><path class="cls-1" d="M1.88,7.93c0,.81-.11,1.63-.16,2.44,0,.37-.05.73-.08,1.1a.83.83,0,0,1-.87.77A.81.81,0,0,1,0,11.37c0-.63.08-1.27.12-1.9s.1-1.26.14-1.89c.06-.92.12-1.83.19-2.75a.8.8,0,0,1,.71-.71,2.73,2.73,0,0,1,.41,0H6.76l.39,0a.81.81,0,0,1,.74.76C8,6,8.05,7.08,8.12,8.19s.15,2,.22,3a1.15,1.15,0,0,1-.09.63.82.82,0,0,1-.87.43.83.83,0,0,1-.68-.79c-.07-1-.13-1.94-.19-2.92,0-.18,0-.36-.06-.55V18.23a1.84,1.84,0,0,1,0,.41,1,1,0,0,1-1,.76,1,1,0,0,1-.91-.8,2.56,2.56,0,0,1,0-.39V12.58a1.93,1.93,0,0,0,0-.24.25.25,0,0,0-.24-.25.26.26,0,0,0-.32.2,1.14,1.14,0,0,0,0,.26v5.81a1,1,0,0,1-.68,1,1,1,0,0,1-1.27-.93c0-1.37,0-2.75,0-4.12q0-3.09,0-6.17V7.93Zm1.64-.18A.6.6,0,0,0,3.58,8c.13.2.25.4.38.59s.29.19.43,0,.2-.33.31-.49a.55.55,0,0,0,.1-.46c-.11-.55-.2-1.1-.32-1.65-.05-.24-.06-.42.16-.58a.23.23,0,0,0,0-.38l-.3-.29A.23.23,0,0,0,4,4.7L3.69,5a.22.22,0,0,0,0,.36.47.47,0,0,1,.16.6,1.16,1.16,0,0,0,0,.18Z"/></g></g></svg>