<svg xmlns="http://www.w3.org/2000/svg" viewBox="0 0 453.61 444.6"><defs><style>.cls-1{fill:#09447d;}</style></defs><g id="Layer_2" data-name="Layer 2"><g id="Layer_2-2" data-name="Layer 2"><path class="cls-1" d="M383.36,148.93c-9.53-3.7-16.41,2.47-24.53,35.47s-6.17,69.88-6.17,69.88h8.82c5.29-50.64,31.76-99.17,31.76-99.17S392.89,152.64,383.36,148.93Z"/><path class="cls-1" d="M355.66,263.63c-8.65-2.11-15.53,15.53-14.12,24.35s15,10.77,19.41-3.52S361.24,265,355.66,263.63Z"/><path class="cls-1" d="M330.77,213.69c-17.72-8.07-27.06,7.57-31.19,29.32v0c-5.27,21-18.36,49.19-23.85,45.31-6.87-4.86,12.35-38.29,12.7-64.23.17-11.86-12-10.42-22.23-6.18,4.36,3.43,1.19,31-4,40.63-3.54,6.52-8.08,12.06-13.51,14.5,5.16-20.13,6.73-41.47-7.68-44-18-3.18-29.3,38.11-13.77,50.13a22.93,22.93,0,0,0,9.48,4.5c-7.48,19.1-32,39.5-35.59,16.3-2.89-18.92,8.47-45.14,20.82-57.35-15.35-10.76-28.41,4.59-34.76,20.83s-8.47,49.41,13.41,55.41c20.41,5.59,37.6-14.93,45-35.32a33.22,33.22,0,0,0,13.37-6.86c-2.25,18.41,1.62,33.82,14.89,26.82,12.19-6.43,20.1-26.17,23.21-35.31-.08,2.43-.12,4.86-.11,7.26,0,30.8,27.19,25.23,30.37,14.64-5.3,0-13.42-3.7-11.12-33.53S330.77,213.69,330.77,213.69Zm-94,27.71c7.59-3.37,8.39,3.48,2.45,32.71C224.62,271,229.5,244.61,236.72,241.4Z"/><path class="cls-1" d="M155.85,277.35c-7.95,23.37-19.83,45.36-24.53,44s5-30.53,9.58-50.12,10.24-50.47-3.17-54.88-21.18,7.41-21.18,7.41c13.24,3.88,9.71,21.18,5.47,45.18s-16.43,58.27.88,63.88c11,3.55,20.67-12.8,26.92-27.31C134,373.7,115.33,405,87.08,427.92c-30,24.35-65.64-7.06-48-46.59s44.47-39.88,44.47-39.88-6.48-18-31-6.35c-34.94,16.59-53.3,92.11,4.94,108,49.72,13.56,102.6-66,120.52-168a111.77,111.77,0,0,1,8.29-26.64C163.71,245.1,161.67,249.36,155.85,277.35Z"/><path class="cls-1" d="M10.76,117S26.91,81.26,73,68.56s99.19-9.68,135.79-27.27c27-13,12.71-41.29,12.71-41.29s-7.68,19.32-64.06,34.67S32,65.33,14.73,77.55-5.65,106.41,10.76,117Z"/><path class="cls-1" d="M56,245.37c31-28.85,43.68-93.17,53.21-132.08S128,67.76,128,67.76c-25.67-4.5-33.62,11.12-39.17,32.82S77.46,166.76,62.11,210.17s-42.08,43.4-44.73,23S32.2,190.58,47,186.34c-8.21-15.88-38.91-9.26-44.21,22.74C-3,244.19,30.52,269.13,56,245.37Z"/><path class="cls-1" d="M453.59,153.26C443.53,165.7,390.07,126,385.3,109.85c14.82-8.21,45.26-50.56,27-57.44S375,78.88,363.6,107.46c13.5-70.14,33.08-88.67,33.08-88.67-9.53-5.29-17.73-8.73-30.44,14.3S348,95.82,345.54,113.64c-6.69,16.9-15.5,36-20.59,34.34-9-2.89,18-64.34,7.68-72.28S304,83.38,291.07,117c2.65-17.73,10.59-34.94,10.59-34.94S286,75.44,280.48,87.88c-4.58,10.27-7.91,29.9-9.53,43.39-15.11,38.26-29,40.29-25.14,14.31,4-26.73,20.38-50.29,20.38-50.29-12.06-6.61-19.4-3.64-25.39,10.27-9.13-23.28-35-3.44-44.75,20.7-4.77,11.72-6.82,24-6.17,34-11.22,25.62-21.68,26-17.92,5.68,4-21.44,15.62-53.2,1.85-58.23S145,132.58,134.37,157.49c7.15-46.32,28.85-90.5,28.85-90.5s-19.05-6.11-27.79,13.48-19.58,63.79-22.81,86.82-1.54,32.29,15.4,31.76c4.77-24.09,18.79-62.73,32.13-72.79-5.47,18.74-14.66,65.64,2,68.29,12.76,2,24.73-15.46,29.66-23.8,2.13,6.26,5.91,10.57,11.36,11.62,11,2.13,21.6-15.06,26.52-24.5.26,10.34,3.7,16.48,11.6,17.36,10.85,1.2,23.06-18.17,28.32-27.58-.09,9.22,2.12,17.18,14,17.78.79-13.5,8.47-43.41,18.53-59s18-23.83,10.32-1.06-10.59,52.14,5.29,53.2c11.85.79,22.8-16.52,27.61-25.38,1.47,7.69,5.34,12.74,12.63,13.2C372.6,86,400.49,53.11,400.12,71.47s-20.38,37.32-29.38,42.88c10.06,20.38,35.74,49.49,53.47,57.7S454.12,167,453.59,153.26Zm-237.66,13c-9.64,1.09-4.8-36.27,6.85-51.09,7.61-9.68,12.28-4.68,14.6,0-3.61,8.39-5.61,22.49-6.47,27.94C226.63,154,221,165.66,215.93,166.23Z"/></g></g></svg>