<svg xmlns="http://www.w3.org/2000/svg" xmlns:xlink="http://www.w3.org/1999/xlink" viewBox="0 0 740.99 811.8"><defs><style>.cls-1{isolation:isolate;}.cls-2{fill:#281e28;}.cls-3{fill:#e58d2e;}.cls-4{fill:#18295b;}.cls-5{fill:url(#Áåçûìÿííûé_ãðàäèåíò_235);}.cls-6{fill:#fff;}.cls-7{fill:#fbbd9e;}.cls-8{fill:#203675;}.cls-9{fill:#294799;}.cls-10{fill:#efefed;}.cls-11{fill:#f2a883;}.cls-12{fill:#e83a3a;}.cls-13{fill:#fcfcfc;}.cls-14{fill:#fcbe9f;}.cls-15{fill:#969696;}.cls-16{fill:url(#Áåçûìÿííûé_ãðàäèåíò_235-2);}.cls-17{fill:#c9c5ba;}.cls-18{fill:#e6e2db;}.cls-19{fill:#f9f6f2;}.cls-20{fill:#f0ece7;}.cls-21{fill:#333030;}.cls-22{fill:#b2aca6;}.cls-23{fill:url(#Gradiente_sem_nome_4);}.cls-24{fill:url(#Gradiente_sem_nome_3);}.cls-25{fill:url(#Gradiente_sem_nome_2);}.cls-26{fill:#ebf3ed;stroke:#09447d;stroke-width:0.37px;}.cls-26,.cls-38{stroke-miterlimit:10;}.cls-27{fill:#b3b3b3;}.cls-28{fill:#58595b;}.cls-29,.cls-30{fill:#e6e6e6;}.cls-30{opacity:0.4;}.cls-30,.cls-32,.cls-34{mix-blend-mode:multiply;}.cls-31{fill:#086623;}.cls-32,.cls-34{fill:#a2b3bc;}.cls-32{opacity:0.64;}.cls-33{fill:#39854f;}.cls-34{opacity:0.51;}.cls-35{fill:#19702f;}.cls-36{fill:#283135;}.cls-37{fill:#efefef;}.cls-38,.cls-39{fill:none;}.cls-38{stroke:#58595b;stroke-width:0.7px;}.cls-39{stroke:#fff;stroke-linecap:round;stroke-linejoin:round;stroke-width:1.5px;}.cls-40{fill:#09447d;}.cls-41{fill:#fffcf8;}.cls-42{fill:#191619;}.cls-43{fill:#494249;}.cls-44{fill:#211921;}.cls-45{fill:#d8a160;}.cls-46{fill:#6e4136;}.cls-47{fill:#eaad6a;}.cls-48{fill:#f5f2ee;}.cls-49{fill:#1e3863;}.cls-50{fill:#9bb212;}.cls-51{fill:url(#Áåçûìÿííûé_ãðàäèåíò_194);}.cls-52{fill:#3d2f3d;}.cls-53{fill:url(#Áåçûìÿííûé_ãðàäèåíò_194-2);}.cls-54{fill:url(#Áåçûìÿííûé_ãðàäèåíò_194-3);}.cls-55{fill:#dd4040;}.cls-56{fill:url(#Áåçûìÿííûé_ãðàäèåíò_194-4);}.cls-57{fill:url(#Áåçûìÿííûé_ãðàäèåíò_194-5);}.cls-58{fill:url(#Áåçûìÿííûé_ãðàäèåíò_194-6);}.cls-59{fill:#4d4d4d;}.cls-60{fill:#aa6b26;}.cls-61{fill:#d89c55;}.cls-62{fill:#c6843c;}</style><linearGradient id="Áåçûìÿííûé_ãðàäèåíò_235" x1="118.55" y1="97.57" x2="57.48" y2="45.59" gradientUnits="userSpaceOnUse"><stop offset="0" stop-color="#294799"/><stop offset="0.11" stop-color="#284494"/><stop offset="0.65" stop-color="#223a7d"/><stop offset="1" stop-color="#203675"/></linearGradient><linearGradient id="Áåçûìÿííûé_ãðàäèåíò_235-2" x1="24.02" y1="141.85" x2="10.1" y2="58.06" xlink:href="#Áåçûìÿííûé_ãðàäèåíò_235"/><linearGradient id="Gradiente_sem_nome_4" x1="519.5" y1="535.09" x2="114.63" y2="304.99" gradientUnits="userSpaceOnUse"><stop offset="0" stop-color="#0869a6"/><stop offset="0.32" stop-color="#086872"/><stop offset="0.62" stop-color="#086747"/><stop offset="0.86" stop-color="#08662d"/><stop offset="1" stop-color="#086623"/></linearGradient><linearGradient id="Gradiente_sem_nome_3" x1="84.99" y1="1010.19" x2="213.29" y2="587.24" gradientTransform="matrix(0.87, -0.5, 1, 0.58, -583.91, 35.08)" gradientUnits="userSpaceOnUse"><stop offset="0" stop-color="#0869a6"/><stop offset="0.01" stop-color="#0a69a5"/><stop offset="0.45" stop-color="#34607d"/><stop offset="0.8" stop-color="#4e5b64"/><stop offset="1" stop-color="#58595b"/></linearGradient><linearGradient id="Gradiente_sem_nome_2" x1="147.68" y1="583.17" x2="147.68" y2="1023.28" gradientTransform="matrix(0.87, -0.5, 1, 0.58, -583.91, 35.08)" gradientUnits="userSpaceOnUse"><stop offset="0" stop-color="#0869a6"/><stop offset="1" stop-color="#09447d"/></linearGradient><linearGradient id="Áåçûìÿííûé_ãðàäèåíò_194" x1="455.12" y1="666.21" x2="511.7" y2="666.21" gradientUnits="userSpaceOnUse"><stop offset="0" stop-color="#281e28"/><stop offset="1" stop-color="#231b23"/></linearGradient><linearGradient id="Áåçûìÿííûé_ãðàäèåíò_194-2" x1="213.68" y1="599.86" x2="224.67" y2="599.86" gradientTransform="matrix(-1, 0, 0, 1, 701.34, 0)" xlink:href="#Áåçûìÿííûé_ãðàäèåíò_194"/><linearGradient id="Áåçûìÿííûé_ãðàäèåíò_194-3" x1="471.03" y1="539.31" x2="492.48" y2="539.31" xlink:href="#Áåçûìÿííûé_ãðàäèåíò_194"/><linearGradient id="Áåçûìÿííûé_ãðàäèåíò_194-4" x1="696.25" y1="805.42" x2="752.82" y2="805.42" xlink:href="#Áåçûìÿííûé_ãðàäèåíò_194"/><linearGradient id="Áåçûìÿííûé_ãðàäèåíò_194-5" x1="-27.43" y1="738.85" x2="-16.44" y2="738.85" gradientTransform="matrix(-1, 0, 0, 1, 701.34, 0)" xlink:href="#Áåçûìÿííûé_ãðàäèåíò_194"/><linearGradient id="Áåçûìÿííûé_ãðàäèåíò_194-6" x1="712.18" y1="678.25" x2="733.64" y2="678.25" xlink:href="#Áåçûìÿííûé_ãðàäèåíò_194"/></defs><g class="cls-1"><g id="Layer_2" data-name="Layer 2"><g id="Layer_1-2" data-name="Layer 1"><g id="_5" data-name="5"><path class="cls-2" d="M92.43,263.84c-1.37-2.43-6.81-4.59-12.09-6.87s-12.88-5.74-13.19-6.52-.1-1.45-.56-2a2.07,2.07,0,0,0-1.11-.51,18.48,18.48,0,0,0-11.36,1.24c-1.64.74-3.62,4-3.62,4,.11,2-.39,8.72,0,9.55,0,0,8,3.51,8.4,3.67.76.31,1-.65,1.71-.67,5.89,3.22,13.39,6,16.86,6.56,4,.65,12.86,2.42,15.12-2.15A6.91,6.91,0,0,0,92.43,263.84Z"/><path class="cls-3" d="M92.68,268c-2.27,4.57-11.15,2.8-15.12,2.14-3.47-.57-27.28-10.9-27.28-10.9-.3,2.47,0,3.38.24,3.89,0,0,8,3.51,8.4,3.67.76.3,1-.65,1.71-.67,5.88,3.22,13.39,6,16.85,6.55,4,.66,13.15,2.44,15.41-2.13a5.88,5.88,0,0,0,.35-4.16A8.07,8.07,0,0,1,92.68,268Z"/><path class="cls-2" d="M17.73,306.39c5.88,3.59,13.46,1.42,15.81-1.42,3.37-4.06-4.73-13.25-7.15-25.28-.15-.72-.57-6.62-.9-6.75-4.61-1.89-16-4.41-18.39-.34-.88,1.51.17,6.49.34,8.13C8.54,291.15,9.4,301.3,17.73,306.39Z"/><path class="cls-3" d="M33.77,302c-2.35,2.84-9.93,5-15.81,1.42-8.33-5.09-9.19-15.24-10.29-25.66-.09-.86-.42-2.65-.59-4.37-.74,1.66.24,6.36.41,7.95,1.09,10.42,2,20.58,10.29,25.66,5.87,3.59,13.46,1.42,15.81-1.42a5.07,5.07,0,0,0,.64-4.39A4.33,4.33,0,0,1,33.77,302Z"/><path class="cls-4" d="M12.54,206.18s-.78,4.2-1.28,6.28c-3.93,16.21-4.83,45.18-5,61.74-.08,5.82,19.33,6.36,20.13-.54.26-2.25,11.4-61.44,12.91-67,1.07-4,5.26-35.94,8.12-47.58.94-3.83,2-7.74,1.65-11.67l-37.68-9.83C8.8,150.18,12.54,206.18,12.54,206.18Z"/><path class="cls-4" d="M45.22,186.39c0,2.41-1,11.08-.32,20.81,1.28,18.15,4.63,41.49,4.67,45.47.07,5.63,21.18,5.3,21-.93l2.08-63s-.83-49.89-2.35-58.43c-9.81.44-30.26,18.12-30.8,24.24-.26,2.84,1,5.45,1.6,8.2C42.87,171.59,45.09,177.41,45.22,186.39Z"/><path class="cls-5" d="M77.49,86.58a7,7,0,0,0,3.92,2.57c7.42,1.86,33.78,7.19,40.14,8.11,3.74.54,5.21-14,3.1-14.74-3.48-1.15-26.2-7.43-33-9.2-1-1.82-15.33-30.52-17.48-34.84-4-8-8.19-10.1-13.64-10.68a3.82,3.82,0,0,0-4.06,4.67c1.4,6.25-.35,16.09,2.1,21.72C61.39,60.62,74.47,82.63,77.49,86.58Z"/><path class="cls-6" d="M125.69,83.45l-1.08-.18c-3.2-.46-6.42,12.27-2.85,13.26l1.32.29C126.66,97.53,128.56,83.91,125.69,83.45Z"/><path class="cls-7" d="M150.61,89.23a1.5,1.5,0,0,0-.91-.32q-5-.6-10-1c-3.43-.63-6.25-2-4.44-3.1,2.22-.78,4.66-1.47,5.3-2.41a1.37,1.37,0,0,0-.05-1.71c-.56-.54-1.47-.28-2.19,0-3.15,1.33-5.3,1.14-6.4,1.76-4.72,2.84-6,2.76-6,2.76-3.09-.09-4.22,9.49-2.06,10.12,2.2.87,9,3.18,12.8,5.31,1.55.87,3.42-.75,1.79-1.76-.14-.09-3-1.5-3.1-1.66,1.25.08,6.44,1.5,7.45,1.73,1.19.26,1.87-1.46,1.14-1.85s-5.06-2.09-5.77-2.46c2.89-.49,5.83.31,8.76.25a2.6,2.6,0,0,0,1.26-.26,1,1,0,0,0,.48-1.1c-.17-.45-.71-.61-1.18-.7a61.66,61.66,0,0,0-6.76-.86c-1.74-.15-2-1.46-.07-1.42q3.87.09,7.72.44a3.14,3.14,0,0,0,1.85-.21A1.07,1.07,0,0,0,150.61,89.23Z"/><path class="cls-8" d="M9,146.68C7.38,169.1,74,163.62,73,142.88c-.83-5.44-4-36.33-4-36.33.29-22,7.09-79.37-4.84-78.26C53.76,29.27,46.8,31,37,36.5c-4.72,2.65-17.36,8.43-24.28,16.67-1.73,2.06-.92,4.87-.93,7.56-.08,14.5-.72,36-.22,47.66C11.77,113.75,9.37,143.54,9,146.68Z"/><path class="cls-9" d="M37.35,35.58c-6.13,3.42-9.09,5.35-8.73,10.16.39,5.09,14.52,42.46,24,55.19,4.87-8.38,9-26.38,11.67-43.15a63.62,63.62,0,0,0,.24-11.3c-.39-6.24-2.62-10.88-7.91-13.83C51.73,29.93,41.83,33.08,37.35,35.58Z"/><path class="cls-10" d="M54.32,90.76a2.2,2.2,0,0,1-4.28.17c-3.2-11.57-9-35-11.68-40.74-4-8.47-2.66-12.8-2.66-12.8s.61-3.81,5.5-3.47,13.3,4.43,13.3,4.43,5,14.84,4.35,20.29C58.46,62.16,56.15,81,54.32,90.76Z"/><path class="cls-11" d="M54.77,37.93,37.22,32.39a17.9,17.9,0,0,1-1,8.74c-1.71,3.64,4.89,13.58,10.4,16.48,4,2.12,8.25.86,8.45-2.54S54.77,37.93,54.77,37.93Z"/><path class="cls-12" d="M55.46,57.36a4,4,0,0,0-1.92.1c-.39.13-1.48.57-1.88.67-1.22.32-3.47,2.59-3.44,3.2.05,1.29,1.12,4.54,2.7,5.67l-1.2,22.93,2.84,10.45,2.65-14.15-2-19.35C55,65,56,57.84,55.46,57.36Z"/><path class="cls-13" d="M51.84,58l8.72.21a172,172,0,0,0-6.06-19.9C59.56,54.63,51.84,58,51.84,58Z"/><path class="cls-13" d="M33.8,40.83c-.38,3.8,5,18.52,8.54,26L51.84,58a13.55,13.55,0,0,1-7.76-3.81c-8-8-8.81-14.3-7-19.37C35.79,36.3,34.1,37.89,33.8,40.83Z"/><path class="cls-14" d="M43.75,3c-7.16,3.33-12.25,8.9-9.62,22.86C36.15,36.62,46,47,54.45,52.34c2.1,1.33,8.36,2.5,10-2.3,1.42-4.07,4.65-15.91,4.1-26-.45-8.12-1.2-15-7.71-19.64C56.43,1.25,51.25-.46,43.75,3Z"/><path class="cls-15" d="M47.14,30.37c1.09-10.48,14.49-4.13,21-11.59,1-4.36-1.29-10.92-7.36-15.33C56.42.23,50.55-1.6,43.06,1.88c-7.16,3.33-12.58,9.49-9.55,24,.22,1.08,2.41,9.45,4.39,9.32,1.24-.36-.85-3.42-.48-6.09s3-3.38,4.66-1.83a5,5,0,0,1,1.49,2.57c.21.91-.11,2,.47,2.77C45,34,46.8,33.66,47.14,30.37Z"/><path class="cls-16" d="M4.72,70.94C2.78,78.79-.49,104.49.06,107.88c1.38,8.41,17.62,25.87,27.47,35.91,2.18,2.54,15.92-4.81,13.7-7.74-11.31-16-22.64-32.61-22.64-32.61s4.72-27.72,6.35-35.6c3.19-15.39-8.5-19.64-12.41-15.14C8.38,57.47,6.2,65,4.72,70.94Z"/><path class="cls-6" d="M41.28,137.93l-.59-.92c-1.78-2.7-13.39,2.93-11.8,6.69l.67,1.18C31.41,148,42.85,140.37,41.28,137.93Z"/><path class="cls-7" d="M40,138.37a10.14,10.14,0,0,0-4,.67,9.92,9.92,0,0,0-4.75,3.1c-3,3.77,10.13.25,10.13.25l-.33-2.47C40.77,139.38,40.66,138.63,40,138.37Z"/><path class="cls-7" d="M32.17,141.18a4.45,4.45,0,0,0-1.71,3.51,7.68,7.68,0,0,0,1,3.09,4.85,4.85,0,0,0,.88,1.38,1.6,1.6,0,0,0,1.51.46.84.84,0,0,1,.41-.08c.17,0,.28.21.37.36a12.45,12.45,0,0,0,2.38,3c1,.93,2.5,1.72,3.67,1,.32-.2.58-.49.9-.69,1.42-.85,3.2.19,4.55-.77.7-.49,1.22-1.14,1.88-1.68a6.84,6.84,0,0,1,2.15-.82c.81-.31,1-.72,1.32-1.44.62-1.41,2.22-5.19-.18-5.79-1-.26-1.29,1.28-1.86,2.12-1,1.41-2.14-.53-4.15-2.63a12.7,12.7,0,0,0-1.92-1.89c-1.28-.88-3-1.56-4.49-.94a6.9,6.9,0,0,1-3.22.57A5.76,5.76,0,0,0,32.17,141.18Z"/><g id="Axonometric_Cube" data-name="Axonometric Cube"><polygon id="Cube_face_-_left" data-name="Cube face - left" class="cls-17" points="102.75 330.41 86.81 321.2 86.81 164.9 102.75 174.1 102.75 330.41"/><polygon id="Cube_face_-_right" data-name="Cube face - right" class="cls-18" points="136.44 310.96 102.75 330.41 102.75 174.1 136.44 154.65 136.44 310.96"/><polygon id="Cube_face_-_top" data-name="Cube face - top" class="cls-19" points="102.75 174.1 86.81 164.9 120.5 145.45 136.44 154.65 102.75 174.1"/></g><polygon class="cls-19" points="49.72 156.43 115.89 117.98 158.45 129.89 92.27 168.34 49.72 156.43"/><polygon class="cls-20" points="46.82 154.44 41.07 157.76 85.04 175.75 89.35 166.34 46.82 154.44"/><polygon class="cls-17" points="113.05 116 113.04 119.63 149.24 140.53 159.05 125.88 142.46 122.86 113.05 116"/><polygon class="cls-18" points="97.05 177.42 173.97 132.77 173.99 149.08 97.06 193.73 97.05 177.42"/><polygon class="cls-19" points="83.62 169.67 160.55 125.02 173.97 132.77 97.05 177.42 83.62 169.67"/><polygon class="cls-17" points="97.05 177.42 83.62 169.67 41.07 157.76 41.06 161.4 97.06 193.73 97.05 177.42"/><polygon class="cls-20" points="155.55 127.9 160.55 125.02 117.99 113.11 113.02 116 155.55 127.9"/><path class="cls-21" d="M92.75,112.09a1.78,1.78,0,0,1-.41,2.34c-1.29,1.55-6.3.09-6.53-2.18-.21-2.07,1.37-3,3.07-2.77A5.7,5.7,0,0,1,92.75,112.09Zm8.38-9.73c-1.69-.23-3.27.7-3.06,2.77.23,2.27,5.24,3.73,6.53,2.18A1.78,1.78,0,0,0,105,105,5.66,5.66,0,0,0,101.13,102.36Z"/><path class="cls-22" d="M91.7,114.21a.77.77,0,0,1-.34-1,.59.59,0,0,1,.84-.3l.18.1c13.13,7.58,23.84,23.55,25.06,37l-1.32.76C115.25,137.62,104.69,121.72,91.7,114.21Zm36.68,29.47,1.32-.77c-1.22-13.45-11.93-29.42-25.06-37l-.18-.1a.6.6,0,0,0-.85.3.79.79,0,0,0,.34,1C117,114.6,127.5,130.5,128.38,143.68Z"/></g><path class="cls-23" d="M630.24,464.3c20.55,11.86,22.78,29.8,5,40.07L484.65,591.31c-17.79,10.27-48.87,9-69.41-2.88L64.77,386.09C44.88,374.61,42.16,357.43,58.13,347c-21.64,13.75-19.89,38.81-1.05,54.77a48.5,48.5,0,0,0,7.69,5.44L415.24,609.58c20.54,11.86,51.62,13.15,69.41,2.88,0,0,151.67-87.59,152.19-87.92C663.3,508,653.77,477,630.24,464.3Z"/><path class="cls-24" d="M635.23,504.37,484.65,591.31c-17.79,10.27-48.87,9-69.41-2.88L64.77,386.09c-20.55-11.86-22.78-29.8-5-40.07l150.58-86.94c17.79-10.27,48.87-9,69.41,2.88L630.24,464.3C650.79,476.16,653,494.1,635.23,504.37Z"/><path class="cls-25" d="M481.23,586.44c-15.86,9.15-41.58,9.2-57.33.1L68,381.09c-15.76-9.1-15.68-23.95.18-33.1l145.56-84c15.86-9.15,41.58-9.2,57.34-.1L627,469.3c15.76,9.1,15.68,23.95-.18,33.1Z"/><path class="cls-26" d="M223.26,269.43l-18,10.4c-1.63.94-1.64,2.46,0,3.4h0c5.59,3.23,5.56,8.48-.07,11.73L121.93,343c-5.63,3.25-14.73,3.26-20.32,0h0a6.48,6.48,0,0,0-5.88,0l-18,10.4c-10.61,6.13-10.66,16-.12,22.12L433.44,581c10.54,6.09,27.7,6.06,38.31-.07l145.55-84c10.62-6.13,10.67-16,.12-22.12L261.57,269.36C251,263.27,233.87,263.3,223.26,269.43Z"/><path class="cls-27" d="M142.56,442.06a2.62,2.62,0,0,0-1.09-2.08l-27-15.59a.67.67,0,0,0-.69-.05h0l-2.31,1.33,28.44,18.61,2.31-1.33h0A.92.92,0,0,0,142.56,442.06Z"/><path class="cls-28" d="M112.14,428.62l27,15.6c.6.34,1.09,0,1.09-.83h0a2.58,2.58,0,0,0-1.09-2.07l-27-15.6c-.6-.35-1.08,0-1.08.82h0A2.61,2.61,0,0,0,112.14,428.62Z"/><path class="cls-27" d="M179.3,463.27a2.58,2.58,0,0,0-1.08-2.07l-27-15.6a.67.67,0,0,0-.69,0l0,0-2.31,1.34,28.44,18.61,2.31-1.34h0A.93.93,0,0,0,179.3,463.27Z"/><path class="cls-28" d="M148.89,449.83l27,15.6c.6.35,1.08,0,1.08-.82h0a2.61,2.61,0,0,0-1.08-2.08l-27-15.6c-.6-.34-1.09,0-1.09.83h0A2.58,2.58,0,0,0,148.89,449.83Z"/><path class="cls-29" d="M144.81,391.23c10.33-5.87,127.39-74.66,138.36-80.57a42.06,42.06,0,0,1,40.07,0c14.34,7.6,138.78,79.31,146,82.68s9.7,12.24,0,18.14-134.56,76.77-143.84,83.1-21.94,12.23-41.34,0-132.45-75.93-142.58-81.41S130.76,399.22,144.81,391.23Z"/><polygon class="cls-30" points="304.74 450.11 256.19 478.17 165.29 426.52 214.56 398.28 304.74 450.11"/><polygon class="cls-31" points="304.73 450.12 214.56 398.28 214.56 299.15 304.77 348.28 304.73 450.12"/><polygon class="cls-32" points="304.77 367.92 214.56 316.12 214.56 299.15 304.77 348.28 304.77 367.92"/><polygon class="cls-31" points="304.77 360.77 208.3 306.29 208.3 283.97 304.77 338.45 304.77 360.77"/><polygon class="cls-33" points="304.73 450.12 394.95 398.32 394.95 304.55 304.73 356.35 304.73 450.12"/><polygon class="cls-34" points="304.73 367.92 394.95 316.01 394.95 304.55 304.73 356.35 304.73 367.92"/><polygon class="cls-33" points="304.73 360.81 401.2 306.33 401.2 284.01 304.73 338.49 304.73 360.81"/><polygon class="cls-35" points="304.77 338.45 208.3 283.55 304.77 228.64 401.27 284.01 304.77 338.45"/><path class="cls-36" d="M283.92,295.81a2.68,2.68,0,0,1-1.34-5l41.73-24.22a2.68,2.68,0,1,1,2.69,4.63l-41.73,24.23A2.76,2.76,0,0,1,283.92,295.81Z"/><path class="cls-37" d="M286,292.29V249.17c0-3.82,1.41-5.83,4.69-7.91,3.53-2.22,23.43-14.11,25.66-15.14,5.33-2.48,7.49.7,7.49,4.75V270.4Z"/><polygon class="cls-38" points="301.2 255.81 290.99 260.56 290.99 249.56 301.12 244.96 301.2 255.81"/><polygon class="cls-38" points="318.3 248.01 308.08 252.76 308.08 241.76 318.21 237.16 318.3 248.01"/><polygon class="cls-35" points="318.3 248.01 308.08 252.76 308.08 241.76 318.21 237.16 318.3 248.01"/><polyline class="cls-39" points="309.38 245.87 312.36 247.91 316.69 241.6"/><path class="cls-40" d="M399,514.61v5.91c0,1.84,1.21,3.68,3.63,5.08l35.74,20.63c4.82,2.78,12.6,2.8,17.42,0l116.92-67.64c2.39-1.39,3.58-3.19,3.58-5l0-5.91c0,1.81-1.2,3.61-3.59,5L455.76,540.32c-4.81,2.8-12.6,2.78-17.41,0l-35.74-20.63C400.18,518.29,399,516.45,399,514.61Z"/><path class="cls-31" d="M402.61,519.69l35.74,20.63c4.81,2.78,12.6,2.8,17.41,0l116.92-67.64c4.82-2.8,4.76-7.3,0-10.08L536.89,442c-4.82-2.78-12.6-2.8-17.41,0L402.55,509.6C397.74,512.4,397.8,516.91,402.61,519.69Z"/><path class="cls-41" d="M473.08,513.51l-5.28,3a2,2,0,0,1-1.85.1l-30.33-10.32c-.81-.25-.85-.58-.13-1l3.79-2.18a2,2,0,0,1,1.81-.07l24,9,.16-.09L449.7,498.11q-.69-.58.12-1.05l3.78-2.18a1.35,1.35,0,0,1,1.73.07l17.87,17.52C473.63,512.87,473.59,513.22,473.08,513.51Zm23.17-13.38-4.51,2.6a13.09,13.09,0,0,1-6.59,1.86,12.84,12.84,0,0,1-6.6-1.81l-12.76-7.37c-2.12-1.22-3.16-2.49-3.14-3.8s1.1-2.59,3.22-3.81l4.51-2.61a13.3,13.3,0,0,1,6.6-1.86,12.85,12.85,0,0,1,6.6,1.82l12.75,7.36q3.18,1.83,3.14,3.81T496.25,500.13Zm-8.13-.42,2.86-1.65c.86-.49,1.29-.95,1.29-1.37s-.43-.87-1.29-1.37l-12.27-7.09a4.18,4.18,0,0,0-4.75,0l-2.86,1.65c-.86.5-1.28.95-1.27,1.36s.45.87,1.31,1.36l12.27,7.09a4.79,4.79,0,0,0,2.36.75A4.61,4.61,0,0,0,488.12,499.71Zm29.62-12-3.38,1.95a1.62,1.62,0,0,1-1.73,0l-20.16-11.64a.84.84,0,0,0-.89,0L487,480.71a1.61,1.61,0,0,1-1.69,0l-2.74-1.58c-.56-.33-.56-.65,0-1l15.21-8.78a1.61,1.61,0,0,1,1.69,0l2.74,1.58c.56.33.56.65,0,1l-4.59,2.64c-.32.19-.33.37,0,.54l20.16,11.64C518.3,487.07,518.3,487.4,517.74,487.72Zm25.83-14.91-13.16,7.6a1.59,1.59,0,0,1-1.68,0l-24.19-14c-.56-.32-.56-.65,0-1l13.16-7.6a1.56,1.56,0,0,1,1.65,0l2.73,1.58c.57.33.58.65,0,1l-8.4,4.85c-.33.19-.34.37,0,.54l5.23,3a.85.85,0,0,0,.92,0l6.88-4a1.61,1.61,0,0,1,1.69,0l2.74,1.58c.56.33.56.65,0,1l-6.88,4c-.33.19-.34.36,0,.53l5.59,3.23a.87.87,0,0,0,.93,0l8.4-4.86a1.56,1.56,0,0,1,1.66,0l2.73,1.58C544.1,472.18,544.11,472.5,543.57,472.81Z"/><path class="cls-42" d="M676.67,719.49c0-.32,0-.65,0-1l.21-11.61a47.86,47.86,0,0,0-8-1.54l-8.78,1.48c-2.86,4.41-21.21,2-22.14,8.88-1.43,6,16.71,6.4,19.49,5.87,2-.39,5.39-.79,7-1.24C664.39,720.35,676.66,719.91,676.67,719.49Z"/><path class="cls-42" d="M693.53,680.58l-18.69-4.79c-2.59.79-4.35,5.49-3.58,8.07.31,1,9.8,4,12.73,4.77a12.32,12.32,0,0,0,8.16-.62c.45-.23,1.38-.75,1.37-1.38C693.52,686.63,693.52,681.41,693.53,680.58Z"/><path class="cls-43" d="M689.41,688.52a17.26,17.26,0,0,1-6.44-.3,29.88,29.88,0,0,1-7.57-2.61l.83,3a43.16,43.16,0,0,0,9.74,2.34c5.42.32,6.93-1.18,7.37-1.85a1.19,1.19,0,0,0,.17-.66v-2.06S693.45,687.89,689.41,688.52Z"/><path class="cls-43" d="M676.54,718.42c-.73.68-9.39,1.41-11.47,1.59a133.61,133.61,0,0,1-20.16.42,9.21,9.21,0,0,1-5.36-1.78,3.36,3.36,0,0,1-1.52-3.18,3.46,3.46,0,0,0,.08,3.1,6.28,6.28,0,0,0,4.39,3.59c5,1.13,17.44.3,20.26.06s12.84-.88,13.57-1.56a1.63,1.63,0,0,0,.34-1.17c0-.45,0-.9,0-1.36A1,1,0,0,1,676.54,718.42Z"/><path class="cls-44" d="M691.67,623.9c-.07-7.33-.07-21.31-.49-29.37L674,605.36A155.87,155.87,0,0,0,672.45,630c.13,7.85,5,40.17,5.84,50.09.53,3.38,15.34,3.34,15.48.52,1.51-30,.93-38.86-1.16-48A58,58,0,0,1,691.67,623.9Z"/><path class="cls-44" d="M678.22,689.54c.44-9.14.88-18.36-.42-27.42-.67-4.71-1.6-9.31-1.93-14.07-.32-4.54.77-8.79,1.57-13.3a237.1,237.1,0,0,0,3.81-30.37c.11-2.23.06-4.73-1.51-6.31-1.4-1.42-3.57-1.64-5.55-1.77a33.76,33.76,0,0,0-7.52,0c-5.82.88-10,4.28-15.31,6.92,0,0,.63,25.51,2.12,37.52,1.4,11.29,3.27,17,3.76,24.15.69,10,.68,28.28.78,41.4.05,6.93,18.79,8.27,19.16,2.57C677.61,702.37,677.9,696.07,678.22,689.54Z"/><path class="cls-45" d="M695.88,505.51a11.08,11.08,0,0,1,3.65,6.41c.79,4.16-.19,8.73-.63,12.93-1.17,11.24-1.28,19.21-3,29.32-3.16,18.71,3.67,14.83,1.07,42.35-.66,7-5.07,4.44-5.07,4.44a15.71,15.71,0,0,1-2.07,3.81c-7.35,9.85-21.17,8.15-32,7.77-1.6-.06-6.19-1.15-7.5-2.08-.3-.22,1.77-11.42,2-14.56.48-5.83.71-11.69.82-17.55.23-11.52,0-23,.15-34.56.08-5.42.26-10.9,1.63-16.14s4.05-10.31,8.33-13.64a24.41,24.41,0,0,1,2.84-1.87c1.31-.75,7.24-.66,8.6-1.32,4.32-2.09,4.84-2,8.5-4.58,1.1-.53.41-2.91,1.62-3.14C689.31,502.29,693.46,503.43,695.88,505.51Z"/><path class="cls-46" d="M659.6,607.51a7.34,7.34,0,0,0-3.94-2.33c-1.95-.33-5.87,1.28-6.64,3.27-.48,1.23-.79,2.32-1.38,3.54a11.72,11.72,0,0,0-1.51,5.54,1.89,1.89,0,0,0,1.15,1.85c.75.47,1,.19,1.75.63.28.16,1.83,1.54,2.14,1.64,1.87.64,2.18,1.6,4.15,1.63a4.85,4.85,0,0,0,3.71-2.1,11.59,11.59,0,0,0,1.72-2.48c.89-1.93.3-4.37,0-6.36C660.46,610.9,660.39,608.8,659.6,607.51Z"/><path class="cls-6" d="M649.12,604.27c-.22,2.32-.39,3.93-.43,4.31-.58,4.58,11.16,5.5,11.83,3.84a70,70,0,0,0,2.15-6.82A110.82,110.82,0,0,1,649.12,604.27Z"/><path class="cls-46" d="M683.56,495.93l-16.33-8.7S657,477,656.72,479.82s.53,22,2,24c.6.83,4.91,1.55,6.71,1.37l.66,4.13c10.33.17,18.16-3.94,17.78-6.94A58,58,0,0,1,683.56,495.93Z"/><path class="cls-6" d="M664.31,513.29s1.36-4.33,1.36-4.33c4.67-.15,9.07-.55,13.47-2.61,2.65-1.41,4.64-3,4.71-4.59l1.64,2.4s3.4,2.3-6.66,7.14C674.61,513.33,669,513.36,664.31,513.29Z"/><path class="cls-47" d="M664.83,511.77a39.1,39.1,0,0,0,8.94-1.13c7-1.72,7.94-2.63,9-3.35,3.4-2.36,2-4,1.75-4.59,6.63-.67,3.64,6.46-1.69,8.94-9.87,4.6-20.29,3.32-20.07,2.88A11,11,0,0,1,664.83,511.77Z"/><path class="cls-44" d="M669.33,465.23c5.65-.24,9.57,1.12,12.31,3.12a14,14,0,0,1,5.45,11.08c.1,6.14-.61,14.46-3.47,19.18-1.82,4.05-16.36,6.66-16.74-2.11.26-2.75.24-5.19-.58-6.93s-3.14-2.32-3.83-.23c-.13.38-.42,1.76-.61,2.11-.41.75-1.25.49-1.33-.73s0-3.19-.13-4.44a9.84,9.84,0,0,0-3.81-6.07C656.15,469.32,660.15,465.61,669.33,465.23Z"/><path class="cls-45" d="M651.73,569.41c-.45,7.22-3.1,35-3.34,36.91-.65,5.17,12.61,6.2,13.37,4.32,2.53-6.23,8.08-29.2,9.21-41.17,2.26-23.92,3.16-31.08,3.44-36.51a15.25,15.25,0,0,0-6.68-13.63c-6.56-4.24-15.49-2.27-15.64,26.61C652.06,552.08,651.91,566.62,651.73,569.41Z"/><path class="cls-48" d="M612.89,668.8c0-.37,0-.74,0-1.12q.12-6.6.23-13.19a55.7,55.7,0,0,0-9.16-1.76l-10,1.69c-3.26,5-24.11,2.3-25.18,10.1-1.62,6.86,19,7.27,22.16,6.67,2.32-.44,6.13-.9,7.93-1.41C598.92,669.78,612.88,669.28,612.89,668.8Z"/><path class="cls-48" d="M632.06,624.56l-21.25-5.44c-2.95.9-4.95,6.24-4.07,9.17.35,1.17,11.14,4.57,14.47,5.43a14.11,14.11,0,0,0,9.28-.71c.51-.26,1.56-.85,1.55-1.57C632,631.44,632.05,625.51,632.06,624.56Z"/><path class="cls-17" d="M627.38,633.59a19.61,19.61,0,0,1-7.32-.34,33.56,33.56,0,0,1-8.61-3l.95,3.4a49.77,49.77,0,0,0,11.06,2.66c6.17.36,7.89-1.35,8.38-2.11a1.24,1.24,0,0,0,.19-.75v-2.35S632,632.87,627.38,633.59Z"/><path class="cls-17" d="M612.74,667.58c-.82.78-10.67,1.61-13,1.82a151.62,151.62,0,0,1-22.93.47,10.56,10.56,0,0,1-6.09-2,3.83,3.83,0,0,1-1.72-3.62,4,4,0,0,0,.08,3.53,7.18,7.18,0,0,0,5,4.08c5.71,1.28,19.83.34,23,.06s14.6-1,15.42-1.77a1.81,1.81,0,0,0,.39-1.33l0-1.54A.83.83,0,0,1,612.74,667.58Z"/><path class="cls-49" d="M629.94,560.13c-.08-8.33.37-24.22-.55-33.39-5.94-10.59-12.52-4.63-19.52,12.31a178.19,178.19,0,0,0-1.78,28c.15,8.92,5.68,45.66,6.64,56.94.61,3.84,17.44,3.8,17.6.59,1.72-34.14,1-44.18-1.32-54.52A66,66,0,0,1,629.94,560.13Z"/><path class="cls-49" d="M614.65,634.76c.51-10.4,1-20.88-.47-31.18-.77-5.36-1.82-10.59-2.2-16-.36-5.17.87-10,1.79-15.13a270.9,270.9,0,0,0,4.33-34.52c.12-2.54.07-5.38-1.71-7.18-1.6-1.61-4.07-1.86-6.32-2a38.79,38.79,0,0,0-8.55,0c-6.61,1-11.43.68-17.41,3.68,0,0,.72,33.19,2.42,46.85,1.59,12.83,3.71,19.26,4.28,27.45.77,11.32.76,32.15.87,47.06.06,7.89,21.36,9.41,21.79,2.93C614,649.34,614.29,642.18,614.65,634.76Z"/><path class="cls-14" d="M634.3,461c-5.11,1.75-9.13,4.16-14.74,3.83a8.09,8.09,0,0,1-.86-.12c-.26,2.91-.51,6.08-.72,10.18,0,0-18-5.06-18.45-5.3-2.48-1.36-7.11,5.44-6.13,8.86,1.15,2.5,19.92,10.36,34.63,16a3.41,3.41,0,0,0,4.54-2.34c1.62-6.56,3.48-19.23,4.27-31.84C636,460.44,635.13,460.67,634.3,461Z"/><path class="cls-50" d="M638.33,466.38a146.85,146.85,0,0,0-.43-16.09,36.48,36.48,0,0,0-1.76-7.76A9.3,9.3,0,0,0,626,436.35a18,18,0,0,0-3.71.91c-4.43,1.67-2,6.12-2.19,10-.44,9-1,21.93-1,21.93C623.13,474.47,638.39,470.73,638.33,466.38Z"/><path class="cls-50" d="M584.05,502.83c-.12,14.73,0,29.32.06,29.63,3.5,12.59,45.81,8.41,45.51-4.84-.23-10.22-1.06-21.07-.48-28.71,1.17-15.64,3-26.93,3.82-33.43.94-7.22,3.13-19.65-.18-26.13-1.34-2.64-6.36-3.37-10.5-2.09s-4.52,2-9.25,3.94c-17,6.92-34.45,14.18-33.12,21,.31,1.58,1.66,2.62,2.27,4.08C583.24,468.8,584.51,478.78,584.05,502.83Z"/><path class="cls-14" d="M577.32,467.93c-1.91,11.54,1.22,24.88,1.83,37.14,0,0-13.91-2.77-16.88-4.58-2-1.25-5.28,3.89-6.32,7.24,3.67,2.46,20.76,12.84,27.89,14.45,2,.46,5.12-.75,5.83-2.69,3.18-8.56,3.05-33.72,4.65-49.57C595.5,458.18,580.43,451.88,577.32,467.93Z"/><path class="cls-14" d="M588.59,433c.31,2.31,2.45,3.2,4.11,3.92a3.56,3.56,0,0,1,2.06,2.56l2,10.46c1.27,3.79,22.87-.55,20.84-7.83-1.55-5.56-3.41-14.09-5.66-19.41-7.54-17.85-22.3-20.62-23.14-13.17C588.21,415.22,588,428.67,588.59,433Z"/><path class="cls-44" d="M590.09,417.4a10.75,10.75,0,0,0-1.16-2.85c-1.14-2.57-2.4-6-.28-9.12,3.19-4.63,7.78-7.44,15.68-6.72,4.65.42,11.35,2.91,13.73,6.93,3.42,5.8,3.44,14.09,2.69,19.47-.48,3.46-2.3,10.1-4.66,12.47-1.42,1.41-7.06,2.82-11.52,3.29-3.23.35-6.59-1.49-7.64-4.27-2.17-5.7.66-11-2.48-13.2-1.26-.91-2.21-.65-3.1.51a1.37,1.37,0,0,1-.41.42C589.46,425.05,590.45,420.49,590.09,417.4Z"/><path class="cls-50" d="M595,489.9c.57-8,4.15-37.06-10.78-34.19-4.66.9-7.08,8.87-7.72,12.72a83.7,83.7,0,0,0-.74,19.61C576.29,492.86,593.39,493.37,595,489.9Z"/><path class="cls-14" d="M555,507.5c-.73-.31-1.36-.59-1.93-.87a8.32,8.32,0,0,1-4.19-4.91,23,23,0,0,0-1-2.7,12.55,12.55,0,0,0-1.76-2,2.82,2.82,0,0,1,.72-1.38.74.74,0,0,0,.3-.68c0-.83.34-2.16,1.29-2.3.53-.08.77-.09.77-.62a2.17,2.17,0,0,1,2.6-2.35c.27,0,.32-.07.44-.32,1-2.28,4.47.46,5.4,1.44a16.35,16.35,0,0,1,3,5.21q1.08,2.68,2,5.43a7.53,7.53,0,0,1,.66,2.35,6.39,6.39,0,0,1-1.13,2.54,5.37,5.37,0,0,1-2.64,2.53C558.05,509.33,556.24,508,555,507.5Z"/><g id="Axonometric_Cylinder" data-name="Axonometric Cylinder"><path class="cls-51" d="M462,659.83v1.71c0,2.84,1.8,5.68,5.55,7.84,7.4,4.27,19.4,4.27,26.8,0,3.66-2.11,5.51-4.87,5.55-7.64V660Z"/><path id="Cylinder_face" data-name="Cylinder face" class="cls-52" d="M467.51,667.67c7.4,4.27,19.4,4.27,26.8,0s7.41-11.21,0-15.48-19.4-4.27-26.8,0S460.11,663.39,467.51,667.67Z"/></g><path class="cls-53" d="M486.19,537.22v122c0,4.51-10.56,4.34-10.56,0v-122Z"/><g class="cls-1"><path class="cls-54" d="M488,536.64l-14.37.07v1.14a3.55,3.55,0,0,0,2.07,2.9,11.21,11.21,0,0,0,10.18,0,3.61,3.61,0,0,0,2.13-3Z"/><path class="cls-52" d="M475.75,533.73a11.21,11.21,0,0,1,10.15,0c2.82,1.63,2.77,4.27,0,5.89a11.21,11.21,0,0,1-10.18,0C472.9,538,472.94,535.35,475.75,533.73Z"/></g><path class="cls-55" d="M483.93,546.23V555c44.5,40.13,120,98.11,237.15,138.59v-7.44C649.46,662.79,561.88,615,483.93,546.23Z"/><g id="Axonometric_Cylinder-2" data-name="Axonometric Cylinder"><path class="cls-56" d="M703.08,799v1.72c0,2.83,1.81,5.67,5.56,7.84,7.4,4.27,19.4,4.27,26.8,0,3.66-2.11,5.51-4.87,5.55-7.64v-1.71Z"/><ellipse id="Cylinder_face-2" data-name="Cylinder face" class="cls-52" cx="722.04" cy="799.14" rx="18.95" ry="10.94"/></g><path class="cls-57" d="M727.3,676.2v122c0,4.51-10.56,4.35-10.56,0v-122Z"/><g class="cls-1"><path class="cls-58" d="M729.15,675.59l-14.37.07v1.13a3.55,3.55,0,0,0,2.07,2.91,11.22,11.22,0,0,0,10.17,0,3.62,3.62,0,0,0,2.13-3Z"/><path class="cls-52" d="M716.9,672.68a11.21,11.21,0,0,1,10.15,0c2.82,1.64,2.78,4.28,0,5.9a11.21,11.21,0,0,1-10.18,0C714.05,676.94,714.1,674.3,716.9,672.68Z"/></g><g id="_3" data-name="3"><path class="cls-28" d="M155.92,707.19c21.35,12.32,21.35,32.3,0,44.63s-55.95,12.32-77.29,0-21.35-32.31,0-44.63S134.58,694.87,155.92,707.19Z"/><path class="cls-59" d="M117.27,719.32H65.6A19.14,19.14,0,0,0,63.48,735h53.79Z"/><g id="Axonometric_Cube-2" data-name="Axonometric Cube"><polygon id="Cube_face_-_left-2" data-name="Cube face - left" class="cls-60" points="117.27 735 105.92 728.44 105.92 396.76 122.28 399.45 117.27 735"/><polygon id="Cube_face_-_top-2" data-name="Cube face - top" class="cls-61" points="117.27 403.31 105.92 396.76 117.27 390.2 128.63 396.76 117.27 403.31"/><polygon id="Cube_face_-_right-2" data-name="Cube face - right" class="cls-62" points="128.63 728.44 117.27 735 117.27 403.31 128.63 396.76 128.63 728.44"/></g><g id="Axonometric_Cube-3" data-name="Axonometric Cube"><polygon id="Cube_face_-_left-3" data-name="Cube face - left" class="cls-17" points="60.35 541.68 57.15 539.83 57.15 431.35 60.35 433.2 60.35 541.68"/><polygon id="Cube_face_-_right-3" data-name="Cube face - right" class="cls-18" points="191.64 465.88 60.35 541.68 60.35 433.2 191.64 357.39 191.64 465.88"/><polygon id="Cube_face_-_top-3" data-name="Cube face - top" class="cls-48" points="60.35 433.2 57.15 431.35 188.44 355.55 191.64 357.39 60.35 433.2"/></g><path class="cls-31" d="M80.23,446.06c.51-.3.69-.14.6.42l-4.53,23a1.5,1.5,0,0,1-.71,1.12l-3.86,2.23c-.42.24-.66.15-.75-.28l-4.63-17.72c-.15-.42.05-.79.58-1.09l2.79-1.62c.38-.21.62-.13.71.31l3.15,14.92c.11-.07,3.17-18.57,3.17-18.57a1.46,1.46,0,0,1,.71-1.12Z"/><path class="cls-31" d="M94,439.56c.85.46,1.27,1.59,1.28,3.37l0,10.78A9.38,9.38,0,0,1,94,458.54a9.74,9.74,0,0,1-3.61,3.51L87.1,464c-1.56.89-2.75,1.1-3.62.66s-1.27-1.59-1.28-3.37l0-10.78a9.38,9.38,0,0,1,1.25-4.83A9.66,9.66,0,0,1,87,442.13l3.31-1.91C91.91,439.31,93.11,439.08,94,439.56Zm-2.44,16.11,0-10.37c0-.71-.13-1.17-.4-1.32s-.71-.05-1.35.32l-2.09,1.2a3.41,3.41,0,0,0-1.33,1.23,3.64,3.64,0,0,0-.39,1.78l0,10.37c0,.71.14,1.15.4,1.3s.69.06,1.33-.31l2.09-1.21a3.64,3.64,0,0,0,1.35-1.23,3.55,3.55,0,0,0,.39-1.76Z"/><path class="cls-31" d="M108.25,429.88c.42-.24.62-.13.62.36v2.29a1.14,1.14,0,0,1-.62,1.07l-3.37,1.95a.66.66,0,0,0-.36.58l0,17a1.13,1.13,0,0,1-.62,1.07l-2.48,1.43c-.42.24-.64.14-.64-.34l0-17-.33-.2-3.37,1.95c-.4.23-.63.13-.63-.35v-2.3a1.18,1.18,0,0,1,.61-1.07Z"/><path class="cls-31" d="M120.66,422.71c.4-.23.6-.11.6.37v2.29a1.13,1.13,0,0,1-.6,1.06L114.51,430a.62.62,0,0,0-.35.59V435c0,.26.11.32.35.18l5.06-2.92c.4-.23.62-.13.62.36v2.32a1.2,1.2,0,0,1-.62,1.07l-5.06,2.92a.59.59,0,0,0-.35.56v4.73c0,.23.12.3.36.16l6.16-3.56c.4-.23.6-.09.6.37v2.31a1.13,1.13,0,0,1-.6,1.06l-9.66,5.58c-.4.23-.62.13-.63-.35l-.05-20.4a1.17,1.17,0,0,1,.62-1.08Z"/><path class="cls-31" d="M142.12,410.33c.42-.25.62-.13.62.35l.06,20.4a1.13,1.13,0,0,1-.62,1.07l-2.5,1.45c-.43.24-.63.13-.63-.35l0-7.95-.33-.19-5,2.88a.6.6,0,0,0-.35.59l0,7.94a1.13,1.13,0,0,1-.62,1.07L130.25,439c-.42.24-.62.13-.62-.36l-.06-20.4a1.14,1.14,0,0,1,.62-1.07l2.51-1.45c.42-.24.62-.12.62.36l0,8c0,.26.11.32.36.18l5-2.88.33-.57,0-8a1.14,1.14,0,0,1,.62-1.07Z"/><path class="cls-31" d="M156.13,402.24c.4-.23.6-.12.6.36v2.3a1.11,1.11,0,0,1-.59,1.06L150,409.51a.64.64,0,0,0-.36.59v4.41c0,.25.12.32.36.17l5-2.91c.4-.23.63-.13.63.35v2.32a1.19,1.19,0,0,1-.62,1.07L150,418.43a.6.6,0,0,0-.35.56v4.74c0,.23.11.29.36.15l6.16-3.56c.4-.23.6-.09.6.37V423a1.14,1.14,0,0,1-.6,1.06l-9.67,5.58c-.39.23-.62.13-.62-.36l-.06-20.4a1.16,1.16,0,0,1,.62-1.07Z"/><path class="cls-31" d="M172.41,413.88c.18.44,0,.81-.5,1.11l-2.38,1.37a2.05,2.05,0,0,1-.77.32c-.16,0-.29-.11-.38-.37l-3-5.62-2,1.14a.63.63,0,0,0-.36.59l0,6.95a1.16,1.16,0,0,1-.62,1.07l-2.5,1.45c-.42.24-.62.13-.63-.35l-.05-20.41a1.13,1.13,0,0,1,.62-1.07l7-4.06c1.53-.88,2.73-1.09,3.6-.62s1.31,1.59,1.32,3.35v2.65a9.19,9.19,0,0,1-2.62,6.62C169.22,408.15,172.41,413.88,172.41,413.88Zm-4.31-10.16v-2.65c0-.71-.16-1.13-.45-1.27s-.75-.05-1.39.32l-2.91,1.68-.31.56,0,5.83.31.2,2.9-1.67a3.8,3.8,0,0,0,1.4-1.27,3.22,3.22,0,0,0,.44-1.73Z"/><path class="cls-31" d="M185,385.57c.38-.21.58-.1.58.38v2.3a1.1,1.1,0,0,1-.57,1l-6.19,3.57a.65.65,0,0,0-.35.59v4.41c0,.25.12.32.36.17l5-2.91c.42-.25.62-.13.63.35v2.32a1.16,1.16,0,0,1-.62,1.07l-5,2.92a.6.6,0,0,0-.35.56v4.74c0,.23.11.29.36.15l6.18-3.57c.38-.22.58-.08.58.38v2.32a1.08,1.08,0,0,1-.57,1L175.39,413c-.43.25-.63.13-.63-.35l0-20.4a1.13,1.13,0,0,1,.61-1.08Z"/><polygon class="cls-31" points="175.38 441.53 148.19 441.53 148.19 448.34 81.88 486.62 81.88 504.39 148.19 466.11 148.19 472.92 175.38 441.53"/></g></g></g></g></svg>